<?xml version="1.0" encoding="UTF-8"?>
<svg xmlns="http://www.w3.org/2000/svg" height="16px" viewBox="0 0 16 16" width="16px"><path d="m 8 1 c -0.828125 0 -1.5 0.671875 -1.5 1.5 c 0 0.097656 0.011719 0.195312 0.03125 0.289062 c -1.523438 0.601563 -2.527344 2.074219 -2.53125 3.710938 v 3.5 h -0.5 c -0.554688 0 -1 0.445312 -1 1 s 0.445312 1 1 1 h 9 c 0.554688 0 1 -0.445312 1 -1 s -0.445312 -1 -1 -1 h -0.5 v -3.5 c 0 -1.640625 -1.003906 -3.117188 -2.53125 -3.71875 c 0.019531 -0.09375 0.03125 -0.1875 0.03125 -0.28125 c 0 -0.828125 -0.671875 -1.5 -1.5 -1.5 z m -2 12 c 0 0.714844 0.382812 1.375 1 1.734375 c 0.617188 0.355469 1.382812 0.355469 2 0 c 0.617188 -0.359375 1 -1.019531 1 -1.734375 z m 0 0" fill="#222222"/></svg>
