<?xml version="1.0" encoding="UTF-8" standalone="no"?>
<svg
   height="16px"
   viewBox="0 0 16 16"
   width="16px"
   version="1.1"
   id="svg10"
   sodipodi:docname="local-connection-symbolic.svg"
   inkscape:version="1.2.2 (b0a8486541, 2022-12-01)"
   xmlns:inkscape="http://www.inkscape.org/namespaces/inkscape"
   xmlns:sodipodi="http://sodipodi.sourceforge.net/DTD/sodipodi-0.dtd"
   xmlns="http://www.w3.org/2000/svg"
   xmlns:svg="http://www.w3.org/2000/svg">
  <defs
     id="defs14" />
  <sodipodi:namedview
     id="namedview12"
     pagecolor="#ffffff"
     bordercolor="#666666"
     borderopacity="1.0"
     inkscape:showpageshadow="2"
     inkscape:pageopacity="0.0"
     inkscape:pagecheckerboard="0"
     inkscape:deskcolor="#d1d1d1"
     showgrid="false"
     inkscape:zoom="32.09375"
     inkscape:cx="10.921129"
     inkscape:cy="3.1781889"
     inkscape:current-layer="svg10" />
  <g
     id="g2632">
    <path
       d="M 4,1 C 2.339844,1 1,2.339844 1,4 v 6 c 0,1.660156 1.339844,3 3,3 h 8 c 1.664062,0 3,-1.339844 3,-3 V 4 C 15,2.339844 13.664062,1 12,1 Z m 0,2 h 8 c 0.554688,0 1,0.445312 1,1 v 6 c 0,0.554688 -0.445312,1 -1,1 H 4 C 3.445312,11 3,10.554688 3,10 V 4 C 3,3.445312 3.445312,3 4,3 Z"
       id="path2"
       style="fill:#222222"
       sodipodi:nodetypes="ssssssssssssssssss" />
    <path
       id="path411"
       d="m 5,14 c -1.1054679,0 -2,0.894532 -2,2 h 10 c 0,-1.105468 -0.894532,-2 -2,-2 z" />
  </g>
</svg>
