<?xml version="1.0" encoding="UTF-8"?>
<svg xmlns="http://www.w3.org/2000/svg" xmlns:xlink="http://www.w3.org/1999/xlink" height="16px" viewBox="0 0 16 16" width="16px"><filter id="a" height="100%" width="100%" x="0%" y="0%"><feColorMatrix color-interpolation-filters="sRGB" values="0 0 0 0 1 0 0 0 0 1 0 0 0 0 1 0 0 0 1 0"/></filter><mask id="b"><g filter="url(#a)"><path d="m -1.6 -1.6 h 19.2 v 19.2 h -19.2 z" fill-opacity="0.5"/></g></mask><clipPath id="c"><path d="m 0 0 h 1600 v 1200 h -1600 z"/></clipPath><mask id="d"><g filter="url(#a)"><path d="m -1.6 -1.6 h 19.2 v 19.2 h -19.2 z" fill-opacity="0.7"/></g></mask><clipPath id="e"><path d="m 0 0 h 1600 v 1200 h -1600 z"/></clipPath><mask id="f"><g filter="url(#a)"><path d="m -1.6 -1.6 h 19.2 v 19.2 h -19.2 z" fill-opacity="0.35"/></g></mask><clipPath id="g"><path d="m 0 0 h 1600 v 1200 h -1600 z"/></clipPath><g mask="url(#b)"><g clip-path="url(#c)" transform="matrix(1 0 0 1 -200 -80)"><path d="m 550 182 c -0.351562 0.003906 -0.695312 0.101562 -1 0.28125 v 3.4375 c 0.304688 0.179688 0.648438 0.277344 1 0.28125 c 1.105469 0 2 -0.894531 2 -2 s -0.894531 -2 -2 -2 z m 0 5 c -0.339844 0 -0.679688 0.058594 -1 0.175781 v 6.824219 h 4 v -4 c 0 -1.65625 -1.34375 -3 -3 -3 z m 0 0"/></g></g><g mask="url(#d)"><g clip-path="url(#e)" transform="matrix(1 0 0 1 -200 -80)"><path d="m 569 182 v 4 c 1.105469 0 2 -0.894531 2 -2 s -0.894531 -2 -2 -2 z m 0 5 v 7 h 3 v -4 c 0 -1.65625 -1.34375 -3 -3 -3 z m 0 0"/></g></g><g mask="url(#f)"><g clip-path="url(#g)" transform="matrix(1 0 0 1 -200 -80)"><path d="m 573 182.269531 v 3.449219 c 0.613281 -0.355469 0.996094 -1.007812 1 -1.71875 c 0 -0.714844 -0.382812 -1.375 -1 -1.730469 z m 0 4.90625 v 6.824219 h 2 v -4 c 0 -1.269531 -0.800781 -2.402344 -2 -2.824219 z m 0 0"/></g></g><path d="m 5.210938 1.269531 c 0.703124 -0.808593 1.71875 -1.269531 2.789062 -1.269531 c 1.113281 0 2.109375 0.492188 2.789062 1.269531 c 1.066407 -0.074219 2.113282 0.316407 2.867188 1.074219 c 0.757812 0.753906 1.148438 1.800781 1.074219 2.867188 c 0.808593 0.703124 1.269531 1.71875 1.269531 2.789062 s -0.460938 2.085938 -1.269531 2.789062 c 0.074219 1.066407 -0.316407 2.113282 -1.074219 2.867188 c -0.753906 0.757812 -1.800781 1.148438 -2.867188 1.074219 c -0.703124 0.808593 -1.71875 1.269531 -2.789062 1.269531 s -2.085938 -0.460938 -2.789062 -1.269531 c -1.066407 0.074219 -2.113282 -0.316407 -2.867188 -1.074219 c -0.757812 -0.753906 -1.148438 -1.800781 -1.074219 -2.867188 c -0.808593 -0.703124 -1.269531 -1.71875 -1.269531 -2.789062 c 0 -1.113281 0.492188 -2.109375 1.269531 -2.789062 c -0.074219 -1.066407 0.316407 -2.113282 1.074219 -2.867188 c 0.753906 -0.757812 1.800781 -1.148438 2.867188 -1.074219 z m 5.75 5.242188 c 0.136718 -0.179688 0.160156 -0.414063 0.070312 -0.621094 c -0.089844 -0.203125 -0.285156 -0.339844 -0.507812 -0.359375 c -0.222657 -0.023438 -0.4375 0.082031 -0.5625 0.265625 l -2.65625 3.714844 l -1.332032 -1.332031 c -0.242187 -0.226563 -0.621094 -0.21875 -0.855468 0.015624 c -0.234376 0.234376 -0.238282 0.613282 -0.011719 0.855469 l 1.84375 1.84375 c 0.128906 0.128907 0.304687 0.195313 0.484375 0.179688 c 0.183594 -0.015625 0.347656 -0.109375 0.453125 -0.253907 z m 0 0" fill="#222222" fill-rule="evenodd"/></svg>
