<?xml version="1.0" encoding="UTF-8"?>
<svg xmlns="http://www.w3.org/2000/svg" height="16px" viewBox="0 0 16 16" width="16px"><path d="m 8 0 c -4.421875 0 -8 3.578125 -8 8 s 3.578125 8 8 8 s 8 -3.578125 8 -8 s -3.578125 -8 -8 -8 z m 0 3.875 c 0.621094 0 1.125 0.503906 1.125 1.125 s -0.503906 1.125 -1.125 1.125 s -1.125 -0.503906 -1.125 -1.125 s 0.503906 -1.125 1.125 -1.125 z m -1.523438 3.125 h 2.523438 v 4 h 0.5 c 0.277344 0 0.5 0.222656 0.5 0.5 s -0.222656 0.5 -0.5 0.5 h -2.5 v -4 h -0.5 c -0.277344 0 -0.5 -0.222656 -0.5 -0.5 c 0 -0.269531 0.210938 -0.488281 0.476562 -0.5 z m 0 0"/></svg>
