<svg xmlns="http://www.w3.org/2000/svg" width="16" height="16"><path fill="#2e3436" d="M8.14.273c-1.156.008-2.515.301-3.894.88a.67.67 0 0 0-.234.761.682.682 0 0 0 .664.441c.933-.039 2.312.223 2.972.883.274.266.829.793.211 1.418-.25.239-1.09 1.067-1.09 1.067l1.407 1.406A5.482 5.482 0 0 1 11.5 5.992a5.5 5.5 0 0 1 3.79 1.516l.355-.356c.39-.39.39-1.027 0-1.418v.004l-.48-.48c-.134-.13-.665-.305-.927-.043a.682.682 0 0 1-.945 0 .663.663 0 0 1-.148-.719c.21-.5.105-.965-.176-1.246-.961-.96-1.63-1.656-2.188-2.168-.539-.547-1.484-.816-2.64-.809zM5.829 6.648.531 11.922c-.375.371-.504.566-.5 1.098a2.051 2.051 0 0 0 2 2c.344 0 .645-.25 1.02-.622l2.953-2.953a5.49 5.49 0 0 1 1.234-3.41zm5.61 1.274c-.407 0-.79.09-1.157.219l1.906 1.906a.983.983 0 0 1 0 1.406l-.718.75a.99.99 0 0 1-1.406 0l-1.938-1.937c-.125.359-.219.75-.219 1.156a3.543 3.543 0 0 0 3.532 3.531c.41 0 .792-.094 1.156-.219l1.219 1.188a.168.168 0 0 1 .062 0l2.094-2.094-1.219-1.219a3.65 3.65 0 0 0 .219-1.187c0-1.942-1.582-3.5-3.531-3.5zm0 0"/></svg>