<svg xmlns="http://www.w3.org/2000/svg" width="16" height="16"><g fill="#2e3436"><path d="M8.031.996c-.031 0-.066 0-.101.004a1.002 1.002 0 0 0-.918.992L7.008 3H5.02l.015-.98A1.003 1.003 0 0 0 3.961 1a1 1 0 0 0-.926.98l-.023 1.282A3.302 3.302 0 0 0 1 6.309v4.386c0 1.375.832 2.547 2.02 3.047V15a1 1 0 1 0 2 0v-1H7v1c0 .55.45 1 1 1s1-.45 1-1v-1h2v1c0 .55.45 1 1 1s1-.45 1-1v-1.27c1.18-.503 2-1.671 2-3.035V6.31c0-1.368-.82-2.532-1.992-3.04l.004-1.261a.99.99 0 0 0-.317-.742 1.002 1.002 0 0 0-1.684.727L11.009 3h-2l.004-.992a.998.998 0 0 0-.98-1.012zM4.31 5h7.386C12.418 5 13 5.582 13 6.309v4.386c0 .258-.074.5-.207.7A1 1 0 0 0 11 12H9c0-.55-.45-1-1-1s-1 .45-1 1H5.02a1 1 0 0 0-1-1c-.317.004-.614.16-.801.418A1.313 1.313 0 0 1 3 10.695V6.31C3 5.582 3.582 5 4.309 5zm0 0"/><path d="M3 10c0 .547.469 1 1.02 1H12c.594 0 1-.516 1-1h1v.934l-2 2.046L4 13l-2-2.305V10zm0 0"/></g></svg>