<?xml version="1.0" encoding="UTF-8"?>
<svg height="16px" viewBox="0 0 16 16" width="16px" xmlns="http://www.w3.org/2000/svg">
    <path d="m 13.03125 -0.0078125 c -1.65625 0 -3 1.3437505 -3 3.0000005 c 0 0.125 0.007812 0.25 0.023438 0.371093 l -4.941407 2.472657 c -0.558593 -0.539063 -1.304687 -0.839844 -2.082031 -0.84375 c -1.65625 0 -3 1.34375 -3 3 c 0 1.660156 1.34375 3 3 3 c 0.773438 0 1.519531 -0.304688 2.074219 -0.84375 l 4.949219 2.476562 c -0.015626 0.121094 -0.023438 0.246094 -0.023438 0.367188 c 0 1.660156 1.34375 3 3 3 s 3 -1.339844 3 -3 c 0 -1.65625 -1.34375 -3 -3 -3 c -0.773438 0.003906 -1.519531 0.308593 -2.074219 0.84375 l -4.953125 -2.472657 c 0.015625 -0.121093 0.027344 -0.246093 0.027344 -0.371093 c 0 -0.121094 -0.007812 -0.246094 -0.027344 -0.367188 l 4.949219 -2.476562 c 0.558594 0.539062 1.304687 0.84375 2.078125 0.84375 c 1.65625 0 3 -1.339844 3 -3 c 0 -1.65625 -1.34375 -3.0000005 -3 -3.0000005 z m 0 0" fill="#2e3436"/>
</svg>
