<svg xmlns="http://www.w3.org/2000/svg" width="16" height="16"><path fill="#222" d="M4 0c-.555 0-1 .445-1 1v4H2c-.555 0-1 .445-1 1v9H0v1h16v-1h-1V6c0-.555-.488-1-1-1h-1V1c0-.555-.445-1-1-1zm3 1h2v2h2v2H9v2H7V5H5V3h2zM3.25 9h1.5c.137 0 .25.113.25.25v1.5c0 .137-.113.25-.25.25h-1.5a.252.252 0 0 1-.25-.25v-1.5c0-.137.113-.25.25-.25zm4 0h1.5c.137 0 .25.113.25.25v1.5c0 .137-.113.25-.25.25h-1.5a.252.252 0 0 1-.25-.25v-1.5c0-.137.113-.25.25-.25zm4 0h1.5c.137 0 .25.113.25.25v1.5c0 .137-.113.25-.25.25h-1.5a.252.252 0 0 1-.25-.25v-1.5c0-.137.113-.25.25-.25zm-8 3h1.5c.137 0 .25.113.25.25v1.5c0 .137-.113.25-.25.25h-1.5a.252.252 0 0 1-.25-.25v-1.5c0-.137.113-.25.25-.25zM7 12h2v3H7zm4.25 0h1.5c.137 0 .25.113.25.25v1.5c0 .137-.113.25-.25.25h-1.5a.252.252 0 0 1-.25-.25v-1.5c0-.137.113-.25.25-.25zm0 0"/></svg>