<svg xmlns="http://www.w3.org/2000/svg" xml:space="preserve" style="enable-background:new 0 0 295.53 295.53" viewBox="0 0 295.53 295.53"><path d="m279.212 101.3 11.925-11.925a15 15 0 0 0 0-21.212l-63.77-63.769c-5.857-5.857-15.356-5.857-21.213 0L4.394 206.155a14.994 14.994 0 0 0 0 21.212l63.77 63.769c2.929 2.929 6.768 4.394 10.606 4.394s7.678-1.465 10.606-4.394l11.924-11.924 10.005 10.005c2.929 2.93 6.768 4.394 10.606 4.394s7.678-1.465 10.606-4.394l156.699-156.698a15 15 0 0 0 0-21.212L279.212 101.3zM68.722 248.064 36.837 216.18l33.627-33.627 31.884 31.884-33.626 33.627zm72.858-72.858-31.884-31.884 33.627-33.627 31.884 31.884-33.627 33.627zm72.858-72.858-31.884-31.884 33.627-33.627 31.884 31.884-33.627 33.627z"/></svg>