<?xml version="1.0" encoding="iso-8859-1"?>
<!-- Generator: Adobe Illustrator 17.1.0, SVG Export Plug-In . SVG Version: 6.00 Build 0)  -->
<!DOCTYPE svg PUBLIC "-//W3C//DTD SVG 1.1//EN" "http://www.w3.org/Graphics/SVG/1.1/DTD/svg11.dtd">
<svg version="1.1" id="Capa_1" xmlns="http://www.w3.org/2000/svg" xmlns:xlink="http://www.w3.org/1999/xlink" x="0px" y="0px"
	 viewBox="0 0 295.53 295.53" style="enable-background:new 0 0 295.53 295.53;" xml:space="preserve">
<path d="M279.212,101.3l11.925-11.925c2.813-2.813,4.394-6.628,4.394-10.606s-1.58-7.794-4.394-10.606l-63.77-63.769
	c-5.857-5.857-15.356-5.857-21.213,0L4.394,206.155C1.58,208.967,0,212.783,0,216.761s1.58,7.794,4.394,10.606l63.77,63.769
	c2.929,2.929,6.768,4.394,10.606,4.394s7.678-1.465,10.606-4.394l11.924-11.924l10.005,10.005c2.929,2.93,6.768,4.394,10.606,4.394
	s7.678-1.465,10.606-4.394l156.699-156.698c2.813-2.813,4.394-6.628,4.394-10.606s-1.58-7.794-4.394-10.606L279.212,101.3z
	 M68.722,248.064L36.837,216.18l33.627-33.627l31.884,31.884L68.722,248.064z M141.58,175.206l-31.884-31.884l33.627-33.627
	l31.884,31.884L141.58,175.206z M214.438,102.348l-31.884-31.884l33.627-33.627l31.884,31.884L214.438,102.348z"/>
<g>
</g>
<g>
</g>
<g>
</g>
<g>
</g>
<g>
</g>
<g>
</g>
<g>
</g>
<g>
</g>
<g>
</g>
<g>
</g>
<g>
</g>
<g>
</g>
<g>
</g>
<g>
</g>
<g>
</g>
</svg>
