<?xml version="1.0" encoding="UTF-8" standalone="no"?>
<svg
   height="16px"
   viewBox="0 0 16 16"
   width="16px"
   version="1.1"
   id="svg2864"
   sodipodi:docname="pip-out-symbolic.svg"
   inkscape:version="1.2.2 (b0a8486541, 2022-12-01)"
   xmlns:inkscape="http://www.inkscape.org/namespaces/inkscape"
   xmlns:sodipodi="http://sodipodi.sourceforge.net/DTD/sodipodi-0.dtd"
   xmlns="http://www.w3.org/2000/svg"
   xmlns:svg="http://www.w3.org/2000/svg">
  <defs
     id="defs2868" />
  <sodipodi:namedview
     id="namedview2866"
     pagecolor="#ffffff"
     bordercolor="#666666"
     borderopacity="1.0"
     inkscape:showpageshadow="2"
     inkscape:pageopacity="0.0"
     inkscape:pagecheckerboard="0"
     inkscape:deskcolor="#d1d1d1"
     showgrid="false"
     inkscape:zoom="45.387417"
     inkscape:cx="10.190049"
     inkscape:cy="10.685781"
     inkscape:current-layer="svg2864" />
  <path
     d="M 0,4 C 0,2.355468 1.355469,1 3,1 h 9 c 1.644531,0 3,1.355468 3,3 V 8 H 13 V 4 C 13,3.4375 12.5625,3 12,3 H 3 C 2.4375,3 2,3.4375 2,4 v 9 c 0,0.5625 0.4375,1 1,1 h 3 v 2 H 3 C 1.355469,16 0,14.644531 0,13 Z"
     id="path2850"
     sodipodi:nodetypes="ssssccssssssccsss" />
  <path
     d="m 10,10 c -1.089844,0 -2,0.910156 -2,2 v 2 c 0,1.089843 0.910156,2 2,2 h 4 c 1.089844,0 2,-0.910157 2,-2 v -2 c 0,-1.089844 -0.910156,-2 -2,-2 z m 0,2 h 4 v 2 h -4 z m 0,0"
     fill-opacity="0.34902"
     id="path2852" />
  <path
     style="fill:#000000;fill-opacity:1;stroke:none;stroke-width:1px;stroke-linecap:butt;stroke-linejoin:miter;stroke-opacity:1"
     d="m 4,5 v 4 1 L 4.624148,9.375852 8.4878286,5.5121714 9,5 H 8 Z"
     id="path3089"
     sodipodi:nodetypes="cccccccc" />
</svg>
