<?xml version="1.0" encoding="UTF-8" standalone="no"?>
<svg
   height="16px"
   viewBox="0 0 16 16"
   width="16px"
   version="1.1"
   id="svg4"
   sodipodi:docname="pod-circle-symbolic.svg"
   inkscape:version="1.2.1 (9c6d41e410, 2022-07-14)"
   xmlns:inkscape="http://www.inkscape.org/namespaces/inkscape"
   xmlns:sodipodi="http://sodipodi.sourceforge.net/DTD/sodipodi-0.dtd"
   xmlns="http://www.w3.org/2000/svg"
   xmlns:svg="http://www.w3.org/2000/svg">
  <defs
     id="defs8" />
  <sodipodi:namedview
     id="namedview6"
     pagecolor="#ffffff"
     bordercolor="#666666"
     borderopacity="1.0"
     inkscape:showpageshadow="2"
     inkscape:pageopacity="0.0"
     inkscape:pagecheckerboard="0"
     inkscape:deskcolor="#d1d1d1"
     showgrid="false"
     inkscape:zoom="45.254834"
     inkscape:cx="-1.4142136"
     inkscape:cy="10.805475"
     inkscape:current-layer="svg4" />
  <path
     id="path391"
     style="fill:#222222;stroke-width:1"
     d="M 8 0 A 8 8 0 0 0 0 8 A 8 8 0 0 0 8 16 A 8 8 0 0 0 16 8 A 8 8 0 0 0 8 0 z M 5 3 L 8.2226562 3 C 8.3710934 3 8.5155166 3.0043421 8.65625 3.0136719 C 8.7969834 3.0230017 8.9335865 3.0380592 9.0664062 3.0566406 C 9.1992261 3.075222 9.3284285 3.0972452 9.453125 3.125 C 9.5778215 3.1527548 9.6980898 3.1858064 9.8144531 3.2226562 C 9.9308164 3.2595062 10.04257 3.2998363 10.150391 3.3457031 C 10.258211 3.3915701 10.36187 3.4432411 10.460938 3.4980469 C 10.560004 3.5528525 10.655989 3.612115 10.746094 3.6757812 C 10.836199 3.7394476 10.921021 3.8064577 11.001953 3.8789062 C 11.082886 3.9513549 11.158918 4.0282222 11.230469 4.109375 C 11.302019 4.1905278 11.369682 4.2774088 11.431641 4.3671875 C 11.493599 4.4569662 11.549407 4.550111 11.601562 4.6484375 C 11.653719 4.746764 11.701996 4.8502353 11.744141 4.9570312 C 11.786285 5.0638273 11.823545 5.1738751 11.855469 5.2890625 C 11.887392 5.4042499 11.914055 5.5229839 11.935547 5.6464844 C 11.957039 5.7699849 11.973524 5.8975614 11.984375 6.0292969 C 11.995226 6.1610322 12 6.2976078 12 6.4375 C 12 6.5661618 11.99497 6.6923098 11.986328 6.8164062 C 11.977686 6.9405028 11.966331 7.0625728 11.949219 7.1816406 C 11.932106 7.3007085 11.910177 7.4176743 11.884766 7.53125 C 11.859354 7.6448257 11.830414 7.7556613 11.796875 7.8632812 C 11.763336 7.9709013 11.725088 8.0745805 11.683594 8.1757812 C 11.642099 8.2769821 11.596153 8.3744318 11.546875 8.46875 C 11.497597 8.5630682 11.445562 8.6552154 11.388672 8.7421875 C 11.331781 8.8291596 11.271362 8.9110719 11.207031 8.9902344 C 11.1427 9.0693968 11.073553 9.1459075 11.001953 9.2167969 C 10.930353 9.2876862 10.856041 9.3538629 10.777344 9.4160156 C 10.698647 9.4781685 10.61492 9.534938 10.529297 9.5878906 C 10.443674 9.6408434 10.356048 9.6891327 10.263672 9.7324219 C 10.171295 9.7757109 10.075521 9.8144942 9.9765625 9.8476562 C 9.8776038 9.8808184 9.7752912 9.9090691 9.6699219 9.9316406 C 9.5645526 9.9542122 9.4553582 9.9709044 9.34375 9.9824219 C 9.2321418 9.9939394 9.1176754 10 9 10 L 7 10 L 7 13 L 5 13 L 5 3 z M 7 5 L 7 8 L 8.3242188 8 C 8.3967282 8 8.4676507 7.9986477 8.5351562 7.9941406 C 8.6026619 7.9896336 8.665951 7.9815292 8.7285156 7.9726562 C 8.7910804 7.9637834 8.8524696 7.9525509 8.9101562 7.9394531 C 8.967843 7.9263554 9.0233002 7.9117127 9.0761719 7.8945312 C 9.1290434 7.8773499 9.178443 7.8590145 9.2265625 7.8378906 C 9.274682 7.8167667 9.3218041 7.7925034 9.3652344 7.7675781 C 9.4086646 7.7426529 9.4494773 7.7160854 9.4882812 7.6875 C 9.5270853 7.6589146 9.5634156 7.6297607 9.5976562 7.5976562 C 9.631897 7.5655519 9.663619 7.531576 9.6933594 7.4960938 C 9.7230996 7.4606114 9.7500878 7.4234848 9.7753906 7.3847656 C 9.8006935 7.3460466 9.8247747 7.3054865 9.8457031 7.2636719 C 9.8666315 7.2218571 9.8837738 7.1775817 9.9003906 7.1328125 C 9.9170075 7.0880433 9.9329443 7.0417232 9.9453125 6.9941406 C 9.9576807 6.9465582 9.9664268 6.897911 9.9746094 6.8476562 C 9.9827919 6.7974016 9.9900808 6.746145 9.9941406 6.6933594 C 9.9982004 6.6405736 10 6.5864255 10 6.53125 C 10 6.4501955 9.9955445 6.3654936 9.9863281 6.2792969 C 9.9771118 6.1931002 9.963379 6.104553 9.9414062 6.0175781 C 9.93042 5.9740907 9.9171829 5.9315356 9.9023438 5.8886719 C 9.8875045 5.8458081 9.870697 5.8034132 9.8515625 5.7617188 C 9.832428 5.7200242 9.8109818 5.6786517 9.7871094 5.6386719 C 9.763237 5.598692 9.738037 5.5611572 9.7089844 5.5234375 C 9.6799316 5.4857178 9.6479568 5.4489765 9.6132812 5.4140625 C 9.5786058 5.3791485 9.540741 5.3460159 9.5 5.3144531 C 9.459259 5.2828904 9.4144363 5.2522753 9.3671875 5.2246094 C 9.3199387 5.1969433 9.2690428 5.1716614 9.2148438 5.1484375 C 9.1606446 5.1252136 9.1045607 5.1041736 9.0429688 5.0859375 C 8.9813767 5.0677014 8.9151305 5.0517654 8.8457031 5.0390625 C 8.7762758 5.0263596 8.7027051 5.0163898 8.625 5.0097656 C 8.5472949 5.0031414 8.4653319 5 8.3789062 5 L 7 5 z " />
</svg>
