<svg xmlns="http://www.w3.org/2000/svg" width="16" height="16"><path d="M8 0a8 8 0 0 0-8 8 8 8 0 0 0 8 8 8 8 0 0 0 8-8 8 8 0 0 0-8-8zM5 3h3.223a5.656 5.656 0 0 1 1.23.125 4.265 4.265 0 0 1 .697.22 3.36 3.36 0 0 1 .596.33 2.83 2.83 0 0 1 .484.434 2.773 2.773 0 0 1 .372.54 3.05 3.05 0 0 1 .253.64A4.282 4.282 0 0 1 12 6.437a5.446 5.446 0 0 1-.05.745 4.602 4.602 0 0 1-.153.681 3.812 3.812 0 0 1-.25.606 2.97 2.97 0 0 1-.77.947 2.64 2.64 0 0 1-.513.316 2.694 2.694 0 0 1-.594.2A3.059 3.059 0 0 1 9 10H7v3H5V3zm2 2v3h1.324a2.583 2.583 0 0 0 .752-.105 1.605 1.605 0 0 0 .29-.127 1.286 1.286 0 0 0 .327-.272 1.162 1.162 0 0 0 .207-.363 1.444 1.444 0 0 0 .094-.44 2.117 2.117 0 0 0-.008-.414 1.892 1.892 0 0 0-.084-.39 1.41 1.41 0 0 0-.115-.25 1.164 1.164 0 0 0-.572-.49 1.546 1.546 0 0 0-.37-.11A2.322 2.322 0 0 0 8.38 5H7z" style="fill:#222;stroke-width:1"/></svg>