<?xml version="1.0" encoding="UTF-8" standalone="no"?>
<svg
   height="16px"
   viewBox="0 0 16 16"
   width="16px"
   version="1.1"
   id="svg4"
   sodipodi:docname="put-symbolic.svg"
   inkscape:version="1.2.2 (b0a8486541, 2022-12-01)"
   xmlns:inkscape="http://www.inkscape.org/namespaces/inkscape"
   xmlns:sodipodi="http://sodipodi.sourceforge.net/DTD/sodipodi-0.dtd"
   xmlns="http://www.w3.org/2000/svg"
   xmlns:svg="http://www.w3.org/2000/svg">
  <defs
     id="defs8" />
  <sodipodi:namedview
     id="namedview6"
     pagecolor="#ffffff"
     bordercolor="#666666"
     borderopacity="1.0"
     inkscape:showpageshadow="2"
     inkscape:pageopacity="0.0"
     inkscape:pagecheckerboard="0"
     inkscape:deskcolor="#d1d1d1"
     showgrid="false"
     inkscape:zoom="64.1875"
     inkscape:cx="8"
     inkscape:cy="7.9922103"
     inkscape:current-layer="svg4" />
  <path
     d="M 8,16 C 7.449219,16 7,15.550781 7,15 V 6.414062 L 4.707031,8.707031 C 4.519531,8.894531 4.265625,9 4,9 3.734375,9 3.480469,8.894531 3.292969,8.707031 c -0.390625,-0.390625 -0.390625,-1.023437 0,-1.414062 l 4,-4 c 0.390625,-0.390625 1.023437,-0.390625 1.414062,0 l 4,4 c 0.390625,0.390625 0.390625,1.023437 0,1.414062 -0.390625,0.390625 -1.023437,0.390625 -1.414062,0 L 9,6.414062 V 15 c 0,0.550781 -0.449219,1 -1,1 z M 2,2 V 0 h 12 v 2 z m 0,0"
     fill="#2e3436"
     id="path2" />
</svg>
