<?xml version="1.0" encoding="UTF-8"?>
<svg xmlns="http://www.w3.org/2000/svg" height="16px" viewBox="0 0 16 16" width="16px"><path d="m 7.402344 0.0234375 c -1.199219 0.0898435 -2.363282 0.4492185 -3.402344 1.0507815 c -2.476562 1.425781 -4 4.066406 -4 6.925781 v 4 h 4 v 4 h 2 v -2 h 1 v 2 h 2 v -2 h 1 v 2 h 2 v -4 h 4 v -4 c 0 -2.859375 -1.523438 -5.5 -4 -6.925781 c -1.390625 -0.804688 -2.996094 -1.1718752 -4.597656 -1.0507815 z m -2.902344 6.9765625 h 1 c 0.832031 0 1.5 0.667969 1.5 1.5 s -0.667969 1.5 -1.5 1.5 h -1 c -0.832031 0 -1.5 -0.667969 -1.5 -1.5 s 0.667969 -1.5 1.5 -1.5 z m 6 0 h 1 c 0.832031 0 1.5 0.667969 1.5 1.5 s -0.667969 1.5 -1.5 1.5 h -1 c -0.832031 0 -1.5 -0.667969 -1.5 -1.5 s 0.667969 -1.5 1.5 -1.5 z m -2.5 2 l 1.5 3 h -3 z m 0 0" fill="#222222"/></svg>
