<svg xmlns="http://www.w3.org/2000/svg" width="16" height="16"><path fill="#222" d="M3.18-.016C1.977-.016.984.988.984 2.188V3h2v-.813c0-.132.07-.203.196-.203h9.61c.12 0 .194.07.194.204V3h2v-.813c0-1.199-.996-2.203-2.195-2.203zm0 12.008c-1.203 0-2.196 1.004-2.196 2.203v1.828h2v-1.828c0-.132.07-.203.196-.203h9.61c.12 0 .194.07.194.203v1.785h2v-1.785c0-1.199-.996-2.203-2.195-2.203zm0-8.008C1.977 3.984.984 4.988.984 6.188V7h2v-.813c0-.132.07-.203.196-.203h9.61c.12 0 .194.07.194.204V7h2v-.813c0-1.199-.996-2.203-2.195-2.203zm0 4c-1.203 0-2.196 1.004-2.196 2.204V11h2v-.813c0-.132.07-.203.196-.203h9.61c.12 0 .194.07.194.204V11h2v-.813c0-1.199-.996-2.203-2.195-2.203zm0 0"/></svg>