<svg xmlns="http://www.w3.org/2000/svg" width="16" height="16"><path fill="#222" d="M3 1c-.41 0-.777.25-.93.629l-2 5A.995.995 0 0 0 0 7v7h2v-3h4.004l.004 3h2L8 7a.998.998 0 0 0-.074-.371l-2-5A1 1 0 0 0 5 1zm.676 2h.644L6 7.191V9H2V7.191zM10 4v2h3c.43 0 1 .5 1 1v1h-2c-.918 0-1.734.379-2.25.965s-.742 1.324-.738 2.043c.008.722.246 1.449.758 2.027.515.582 1.32.965 2.23.965h4V7a3 3 0 0 0-3-3zm2 6h2v2h-2c-.398 0-.578-.117-.73-.29-.153-.167-.254-.44-.258-.722 0-.277.093-.539.242-.703.144-.164.324-.285.746-.285zm0 0"/></svg>