<?xml version="1.0" encoding="UTF-8" standalone="no"?>
<svg
   height="16px"
   viewBox="0 0 16 16"
   width="16px"
   version="1.1"
   id="svg4"
   sodipodi:docname="whole-word-symbolic.svg"
   inkscape:version="1.2.1 (9c6d41e410, 2022-07-14)"
   xmlns:inkscape="http://www.inkscape.org/namespaces/inkscape"
   xmlns:sodipodi="http://sodipodi.sourceforge.net/DTD/sodipodi-0.dtd"
   xmlns="http://www.w3.org/2000/svg"
   xmlns:svg="http://www.w3.org/2000/svg">
  <defs
     id="defs8" />
  <sodipodi:namedview
     id="namedview6"
     pagecolor="#ffffff"
     bordercolor="#666666"
     borderopacity="1.0"
     inkscape:showpageshadow="2"
     inkscape:pageopacity="0.0"
     inkscape:pagecheckerboard="0"
     inkscape:deskcolor="#d1d1d1"
     showgrid="false"
     inkscape:zoom="45.254834"
     inkscape:cx="14.893436"
     inkscape:cy="16.771689"
     inkscape:current-layer="svg4" />
  <path
     d="M 0.98998092,2 V 4 H 3.9949903 C 4.4253958,4 4.9966601,4.5 4.9966601,5 V 6 H 2.9933205 C 2.0738187,6 1.2560494,6.378906 0.73956342,6.964844 0.22307751,7.550781 -0.0038638,8.2890616 4.9721687e-5,9.0078116 0.00787272,9.7304686 0.24655365,10.457031 0.75912722,11.035156 1.275613,11.617188 2.0816447,12 2.9933205,12 H 6.9999997 V 5 c 0,-1.632812 -1.3225167,-3 -3.0050094,-3 z M 2.9933205,7.9999996 h 2.0033396 v 2 H 2.9933205 c -0.3991033,0 -0.5790904,-0.117188 -0.7316887,-0.289062 -0.1525974,-0.167969 -0.25433,-0.441407 -0.2582425,-0.722657 0,-0.277343 0.093907,-0.539062 0.2425914,-0.703125 0.1447733,-0.164062 0.3247603,-0.285156 0.7473398,-0.285156 z"
     fill="#222222"
     id="path2"
     sodipodi:nodetypes="ccsscssccscsscsccscccs"
     style="stroke-width:1" />
  <path
     d="m 9,2 h 2.003342 v 4.0000006 h 2.003336 c 0.919502,0 1.737272,0.378906 2.253758,0.964844 0.516486,0.5859372 0.743428,1.324217 0.739514,2.042967 -0.0078,0.722657 -0.246504,1.4492194 -0.759078,2.0273444 C 14.724386,11.617188 13.918354,12 13.006678,12 H 9 Z m 4.006678,5.9999996 h -2.003336 v 2 h 2.003336 c 0.399103,0 0.57909,-0.117188 0.731689,-0.289062 0.152597,-0.167969 0.25433,-0.441407 0.258242,-0.722657 0,-0.277343 -0.09391,-0.539062 -0.242591,-0.703125 -0.144774,-0.164062 -0.324761,-0.285156 -0.74734,-0.285156 z"
     fill="#222222"
     id="path2-3"
     sodipodi:nodetypes="cccssccsccsccscccs"
     style="stroke-width:1" />
  <path
     d="m 0,13 v 2 h 15.999999 v -2 z m 0,0"
     id="path1035"
     style="fill:#222222;stroke-width:1" />
</svg>
