<svg xmlns="http://www.w3.org/2000/svg" width="16" height="16"><path fill="#222" d="M.99 2v2h3.005c.43 0 1.002.5 1.002 1v1H2.993c-.92 0-1.737.379-2.253.965C.223 7.55-.004 8.289 0 9.008c.008.722.247 1.449.76 2.027.516.582 1.322.965 2.233.965H7V5c0-1.633-1.323-3-3.005-3zm2.003 6h2.004v2H2.993c-.399 0-.579-.117-.731-.29-.153-.167-.255-.44-.259-.722 0-.277.094-.539.243-.703.145-.164.325-.285.747-.285zM9 2h2.003v4h2.004c.92 0 1.737.379 2.253.965.517.586.744 1.324.74 2.043a3.082 3.082 0 0 1-.76 2.027c-.516.582-1.322.965-2.233.965H9Zm4.007 6h-2.004v2h2.004c.399 0 .579-.117.731-.29.153-.167.255-.44.259-.722 0-.277-.094-.539-.243-.703-.145-.164-.325-.285-.747-.285z" style="stroke-width:1"/><path d="M0 13v2h16v-2zm0 0" style="fill:#222;stroke-width:1"/></svg>