<svg xmlns="http://www.w3.org/2000/svg" width="16" height="16"><filter id="a" width="100%" height="100%" x="0%" y="0%"><feColorMatrix in="SourceGraphic" values="0 0 0 0 1 0 0 0 0 1 0 0 0 0 1 0 0 0 1 0"/></filter><mask id="c"><g filter="url(#a)"><path fill-opacity=".2" d="M0 0h16v16H0z"/></g></mask><clipPath id="b"><path d="M0 0h192v152H0z"/></clipPath><mask id="e"><g filter="url(#a)"><path fill-opacity=".2" d="M0 0h16v16H0z"/></g></mask><clipPath id="d"><path d="M0 0h192v152H0z"/></clipPath><g clip-path="url(#b)" mask="url(#c)" transform="translate(-168 -16)"><path fill="#fff" d="M40 102h32v4H40zm0 0"/></g><g clip-path="url(#d)" mask="url(#e)" transform="translate(-168 -16)"><path fill="#fff" d="M92 96v28h-4V96zm0 0"/></g><g fill="#241f31"><path d="M3.188 0C1.984 0 1 1.02 1 2.219V13.78C1 14.981 1.984 16 3.188 16h9.624C14.017 16 15 14.98 15 13.781V2.22C15 1.019 14.016 0 12.812 0zM3 3h10v11H3zm1 5v5h4V8zm5 2v3h3v-3zm0 0"/><path fill-opacity=".502" d="M3 3h10v4H3zm0 0"/></g></svg>