<?xml version="1.0" encoding="UTF-8" standalone="no"?>
<svg
   height="128px"
   viewBox="0 0 128 128"
   width="128px"
   version="1.1"
   id="svg4"
   sodipodi:docname="com.github.marhkb.Pods.svg"
   inkscape:version="1.1.2 (0a00cf5339, 2022-02-04)"
   xmlns:inkscape="http://www.inkscape.org/namespaces/inkscape"
   xmlns:sodipodi="http://sodipodi.sourceforge.net/DTD/sodipodi-0.dtd"
   xmlns:xlink="http://www.w3.org/1999/xlink"
   xmlns="http://www.w3.org/2000/svg"
   xmlns:svg="http://www.w3.org/2000/svg">
  <defs
     id="defs8">
    <linearGradient
       inkscape:collect="always"
       xlink:href="#linearGradient1154"
       id="linearGradient1457"
       gradientUnits="userSpaceOnUse"
       gradientTransform="matrix(0.19833507,0,0,0.34542618,2.0013873,446.73697)"
       x1="88.595886"
       y1="-449.39401"
       x2="536.59589"
       y2="-449.39401" />
    <linearGradient
       id="linearGradient1154"
       inkscape:collect="always">
      <stop
         id="stop1142"
         offset="0"
         style="stop-color:#77767b;stop-opacity:1" />
      <stop
         style="stop-color:#c0bfbc;stop-opacity:1"
         offset="0.05000014"
         id="stop1144" />
      <stop
         id="stop1146"
         offset="0.09980702"
         style="stop-color:#9a9996;stop-opacity:1" />
      <stop
         style="stop-color:#9a9996;stop-opacity:1"
         offset="0.90000081"
         id="stop1148" />
      <stop
         id="stop1150"
         offset="0.95000082"
         style="stop-color:#c0bfbc;stop-opacity:1" />
      <stop
         id="stop1152"
         offset="1"
         style="stop-color:#77767b;stop-opacity:1" />
    </linearGradient>
    <linearGradient
       inkscape:collect="always"
       xlink:href="#linearGradient1073"
       id="linearGradient32708"
       gradientUnits="userSpaceOnUse"
       gradientTransform="matrix(1.0097072,0,0,1.0097072,326.88568,-20.290507)"
       x1="-291.92856"
       y1="277.27682"
       x2="-259.79376"
       y2="277.27682" />
    <linearGradient
       inkscape:collect="always"
       id="linearGradient1073">
      <stop
         style="stop-color:#77767b;stop-opacity:1"
         offset="0"
         id="stop1060" />
      <stop
         id="stop1062"
         offset="0.03846154"
         style="stop-color:#c0bfbc;stop-opacity:1" />
      <stop
         style="stop-color:#9a9996;stop-opacity:1"
         offset="0.07685554"
         id="stop1064" />
      <stop
         id="stop1067"
         offset="0.92307693"
         style="stop-color:#9a9996;stop-opacity:1" />
      <stop
         style="stop-color:#c0bfbc;stop-opacity:1"
         offset="0.96153849"
         id="stop1069" />
      <stop
         style="stop-color:#77767b;stop-opacity:1"
         offset="1"
         id="stop1071" />
    </linearGradient>
    <linearGradient
       inkscape:collect="always"
       xlink:href="#linearGradient3501"
       id="linearGradient3503"
       x1="-328.49527"
       y1="283.37869"
       x2="-324.82773"
       y2="284.59482"
       gradientUnits="userSpaceOnUse"
       gradientTransform="matrix(1.0097072,0,0,1.0097072,360.7246,-14.739392)" />
    <linearGradient
       inkscape:collect="always"
       id="linearGradient3501">
      <stop
         style="stop-color:#9a9996;stop-opacity:1;"
         offset="0"
         id="stop3497" />
      <stop
         style="stop-color:#9a9996;stop-opacity:0;"
         offset="1"
         id="stop3499" />
    </linearGradient>
    <linearGradient
       inkscape:collect="always"
       xlink:href="#linearGradient3501"
       id="linearGradient31249"
       x1="-261.7775"
       y1="277.83035"
       x2="-265.51013"
       y2="279.06808"
       gradientUnits="userSpaceOnUse"
       gradientTransform="matrix(1.0097072,0,0,1.0097072,360.7246,-14.739392)" />
    <linearGradient
       inkscape:collect="always"
       xlink:href="#linearGradient1073"
       id="linearGradient37928"
       gradientUnits="userSpaceOnUse"
       gradientTransform="matrix(-1.0097052,0.00201921,-0.00201921,-1.0097052,-195.21835,544.14066)"
       x1="-291.92856"
       y1="277.27682"
       x2="-259.79376"
       y2="277.27682" />
    <linearGradient
       inkscape:collect="always"
       xlink:href="#linearGradient16354"
       id="linearGradient1449"
       gradientUnits="userSpaceOnUse"
       x1="-334.84134"
       y1="232.45152"
       x2="-334.84131"
       y2="251.05222"
       gradientTransform="matrix(0.94786319,0,0,1.0097072,343.04885,-3.7959733)" />
    <linearGradient
       inkscape:collect="always"
       id="linearGradient16354">
      <stop
         style="stop-color:#000000;stop-opacity:1;"
         offset="0"
         id="stop16350" />
      <stop
         style="stop-color:#000000;stop-opacity:0;"
         offset="1"
         id="stop16352" />
    </linearGradient>
    <linearGradient
       inkscape:collect="always"
       xlink:href="#linearGradient16354"
       id="linearGradient47532"
       gradientUnits="userSpaceOnUse"
       gradientTransform="matrix(0.94786319,0,0,4.9297596,343.04902,-959.36668)"
       x1="-334.84134"
       y1="232.45152"
       x2="-334.84131"
       y2="251.05222" />
    <linearGradient
       inkscape:collect="always"
       xlink:href="#linearGradient3501"
       id="linearGradient36371"
       x1="-241.87181"
       y1="275.93741"
       x2="-280.16165"
       y2="190.16061"
       gradientUnits="userSpaceOnUse"
       gradientTransform="matrix(1.0097072,0,0,1.0097072,360.7246,-20.739392)" />
  </defs>
  <sodipodi:namedview
     id="namedview6"
     pagecolor="#ffffff"
     bordercolor="#666666"
     borderopacity="1.0"
     inkscape:pageshadow="2"
     inkscape:pageopacity="0.0"
     inkscape:pagecheckerboard="0"
     showgrid="false"
     inkscape:snap-page="true"
     inkscape:zoom="6.1043129"
     inkscape:cx="62.005341"
     inkscape:cy="64.216892"
     inkscape:window-width="1920"
     inkscape:window-height="1011"
     inkscape:window-x="0"
     inkscape:window-y="0"
     inkscape:window-maximized="1"
     inkscape:current-layer="svg4" />
  <g
     id="g1338"
     style="display:inline;enable-background:new"
     transform="translate(0.0800021,-171.91973)">
    <rect
       ry="8.0776577"
       rx="8.0776567"
       y="186.49496"
       x="19.573055"
       height="105.00954"
       width="88.854111"
       id="rect1388"
       style="display:inline;vector-effect:none;fill:url(#linearGradient1457);fill-opacity:1;stroke:none;stroke-width:0.252426;stroke-linecap:butt;stroke-linejoin:miter;stroke-miterlimit:4;stroke-dasharray:none;stroke-dashoffset:0;stroke-opacity:1;marker:none;marker-start:none;marker-mid:none;marker-end:none;paint-order:normal;enable-background:new" />
    <rect
       style="display:inline;fill:#deddda;fill-opacity:1;stroke:#ccaaff;stroke-width:0;stroke-linecap:round;stroke-linejoin:round;stroke-opacity:0;paint-order:markers stroke fill;enable-background:new"
       id="rect1488"
       width="88.854362"
       height="34.341469"
       x="19.572817"
       y="180.49496"
       ry="7.987813" />
    <rect
       style="display:inline;fill:#c5c5c5;fill-opacity:1;stroke:#ccaaff;stroke-width:0;stroke-linecap:round;stroke-linejoin:round;stroke-opacity:0;paint-order:markers stroke fill;enable-background:new"
       id="rect13888"
       width="76.669891"
       height="57.926147"
       x="25.665077"
       y="230.40884"
       ry="4.2605147" />
    <path
       d="m 36.208257,245.64499 h 24.276845 c 2.255938,0 4.084942,1.82899 4.084942,4.08496 v 19.89594 c 0,2.25594 -1.829004,4.08495 -4.084942,4.08495 H 36.208257 c -2.255948,0 -4.084951,-1.82901 -4.084951,-4.08495 v -19.89594 c 0,-2.25597 1.829003,-4.08496 4.084951,-4.08496 z m 0,0"
       fill="#ca763f"
       id="path32713"
       style="display:inline;fill:#986a44;fill-opacity:1;stroke-width:1.24198;enable-background:new" />
    <path
       d="m 36.208257,245.64499 h 24.276845 c 2.255938,0 4.084942,1.82899 4.084942,4.08496 v 19.89594 c 0,2.25594 -1.829004,4.08495 -4.084942,4.08495 H 36.208257 c -2.255948,0 -4.084951,-1.82901 -4.084951,-4.08495 v -19.89594 c 0,-2.25597 1.829003,-4.08496 4.084951,-4.08496 z m 0,0"
       fill="#ca763f"
       id="path48267-6"
       style="display:inline;opacity:0.450577;mix-blend-mode:luminosity;fill:url(#linearGradient32708);fill-opacity:1;stroke-width:1.24198;enable-background:new" />
    <path
       id="rect1394"
       style="display:inline;fill:url(#linearGradient3503);fill-opacity:1;stroke:#ccaaff;stroke-width:0;stroke-linecap:round;stroke-linejoin:round;stroke-opacity:0;paint-order:markers stroke fill;enable-background:new"
       d="m 42.958837,243.50525 h -17.29373 l -3e-5,40.98614 c 0,1.70764 1.001528,3.16296 2.44539,3.84359 z"
       sodipodi:nodetypes="ccscc" />
    <path
       id="path37369"
       style="display:inline;fill:url(#linearGradient31249);fill-opacity:1;stroke:#ccaaff;stroke-width:0;stroke-linecap:round;stroke-linejoin:round;stroke-opacity:0;paint-order:markers stroke fill;enable-background:new"
       d="m 85.041242,243.50525 h 17.293728 l 1.5e-4,41.00137 c 2e-5,1.70763 -1.00152,3.16296 -2.445377,3.84359 z"
       sodipodi:nodetypes="ccscc" />
    <path
       d="M 94.87059,277.64872 H 70.593746 c -2.255938,0 -4.084943,-1.829 -4.084943,-4.08496 v -19.89594 c 0,-2.25595 1.829005,-4.08495 4.084943,-4.08495 H 94.87059 c 2.255949,0 4.084952,1.829 4.084952,4.08495 v 19.89594 c 0,2.25596 -1.829003,4.08496 -4.084952,4.08496 z m 0,0"
       fill="#ca763f"
       id="path37918"
       style="display:inline;fill:#986a44;fill-opacity:1;stroke-width:1.24198;enable-background:new" />
    <path
       d="m 94.92669,277.62436 -24.276795,0.0486 c -2.255938,0.004 -4.088587,-1.82082 -4.093101,-4.07678 l -0.03978,-19.89591 c -0.005,-2.25593 1.820824,-4.08859 4.076762,-4.0931 l 24.276795,-0.0486 c 2.255938,-0.004 4.088597,1.82083 4.09311,4.07676 l 0.03978,19.89591 c 0.005,2.25595 -1.820825,4.0886 -4.076773,4.09311 z m 0,0"
       fill="#ca763f"
       id="path37920"
       style="display:inline;opacity:0.450577;mix-blend-mode:luminosity;fill:url(#linearGradient37928);fill-opacity:1;stroke-width:1.24198;enable-background:new" />
    <path
       d="m 94.917693,283.05245 -24.264223,0.0487 c -2.255938,0.004 -4.086558,-1.82085 -4.093111,-4.07676 l -0.03888,-13.40105 c -0.005,-2.25593 1.820836,-4.08859 4.076764,-4.09311 l 24.264233,-0.0487 c 2.255939,-0.004 4.086548,1.82083 4.093101,4.07677 l 0.03888,13.40104 c 0.004,2.25593 -1.820824,4.08858 -4.076764,4.09311 z"
       fill="#d38d5f"
       id="path37922"
       style="display:inline;fill:#b5835a;fill-opacity:1;stroke-width:1.24198;enable-background:new"
       sodipodi:nodetypes="scscscscs" />
    <path
       d="m 79.537459,283.08399 -0.04543,-21.56949 6.48642,-0.0159 0.04543,21.56947 z"
       fill="#d99d76"
       id="path1418"
       style="display:inline;fill:#c09673;fill-opacity:1;stroke-width:1.14502;enable-background:new"
       sodipodi:nodetypes="ccccc" />
    <path
       d="m 36.150028,240.22953 h 24.335074 c 2.255938,0 4.084942,1.82902 4.084942,4.08494 v 19.45933 c 0,2.25594 -1.829004,4.08495 -4.084942,4.08495 H 36.150028 c -2.255938,0 -4.084942,-1.82901 -4.084942,-4.08495 v -19.45933 c 0,-2.25592 1.829004,-4.08494 4.084942,-4.08494 z m 0,0"
       fill="#d38d5f"
       id="path48269-2"
       style="display:inline;fill:#bf9572;fill-opacity:1;stroke-width:1.24198;enable-background:new" />
    <rect
       style="display:inline;fill:#62a0ea;fill-opacity:1;stroke:#ccaaff;stroke-width:0;stroke-linecap:round;stroke-linejoin:round;stroke-opacity:0;paint-order:markers stroke fill;enable-background:new"
       id="rect14184"
       width="76.669891"
       height="24.399885"
       x="25.665077"
       y="219.16359"
       ry="4.2605147" />
    <path
       d="m 32.065086,251.2327 h 32.504958 v 6.48644 H 32.065086 Z m 0,0"
       fill="#d99d76"
       id="path48271-9"
       style="display:inline;fill:#caa589;fill-opacity:1;stroke-width:1.24198;enable-background:new" />
    <rect
       style="display:inline;fill:url(#linearGradient1449);fill-opacity:1;stroke:#ccaaff;stroke-width:0;stroke-linecap:round;stroke-linejoin:round;stroke-opacity:0;paint-order:markers stroke fill;enable-background:new"
       id="rect1423"
       width="76.670021"
       height="7.1065731"
       x="25.665108"
       y="242.5867"
       ry="0" />
    <rect
       style="display:inline;fill:#c0bfbc;fill-opacity:1;stroke:#ccaaff;stroke-width:0;stroke-linecap:round;stroke-linejoin:round;stroke-opacity:0;paint-order:markers stroke fill;enable-background:new"
       id="rect1445"
       width="76.670021"
       height="4.4301095"
       x="25.665108"
       y="239.13338"
       ry="0" />
    <path
       d="m 79.537479,261.48152 -0.04543,-11.91391 6.486419,-0.004 0.04543,11.91391 z"
       fill="#d99d76"
       id="path46774"
       style="display:inline;fill:#ba8960;fill-opacity:1;stroke-width:0.596597;enable-background:new"
       sodipodi:nodetypes="ccccc" />
    <path
       id="path46794"
       style="display:inline;fill:#418be6;fill-opacity:1;stroke-width:0.575622;enable-background:new"
       d="m 29.924628,219.16311 c -0.9902,0 -1.887153,0.34855 -2.609063,0.9111 h 73.369425 c -0.721978,-0.56274 -1.620632,-0.9111 -2.611043,-0.9111 z m -4.259702,4.33462 v 0.91112 h 76.670694 v -0.91112 z m 0,4.33465 v 0.90913 h 76.670694 v -0.90913 z m 0,4.33268 v 0.90913 h 76.670694 v -0.90913 z" />
    <path
       id="rect47530"
       style="display:inline;opacity:0.4762;fill:url(#linearGradient47532);fill-opacity:1;stroke:#ccaaff;stroke-width:0;stroke-linecap:round;stroke-linejoin:round;stroke-opacity:0;paint-order:markers stroke fill;enable-background:new"
       d="m 25.665107,243.56349 v 30.87693 c 0,1.68992 0.982395,3.13027 2.402003,3.81992 h 71.866692 c 1.419608,-0.68965 2.401998,-2.13 2.401998,-3.81992 v -30.87693 z" />
    <path
       id="path3027"
       style="display:inline;fill:#418be6;fill-opacity:1;stroke-width:0.575622;enable-background:new"
       d="m 29.924628,223.49578 c -0.9902,0 -1.887153,0.34856 -2.609063,0.9111 h 73.369425 c -0.721978,-0.56274 -1.620632,-0.9111 -2.611043,-0.9111 z m -4.259702,4.33463 v 0.91111 h 76.670694 v -0.91111 z m 0,4.33465 v 0.90913 h 76.670694 v -0.90913 z m 0,4.33267 v 0.90913 h 76.670694 v -0.90913 z" />
    <rect
       style="display:inline;fill:url(#linearGradient36371);fill-opacity:1;stroke:#ccaaff;stroke-width:0;stroke-linecap:round;stroke-linejoin:round;stroke-opacity:0;paint-order:markers stroke fill;enable-background:new"
       id="rect35137"
       width="88.854362"
       height="34.341469"
       x="19.572817"
       y="180.49496"
       ry="7.987813" />
  </g>
</svg>
