<?xml version="1.0" encoding="UTF-8"?>
<svg height="128px" viewBox="0 0 128 128" width="128px" xmlns="http://www.w3.org/2000/svg" xmlns:xlink="http://www.w3.org/1999/xlink">
    <defs>
        <linearGradient id="a" gradientTransform="matrix(0.196428 0 0 0.342105 2.59702 273.740051)" gradientUnits="userSpaceOnUse" x1="88.597115" x2="536.597778" y1="-449.393982" y2="-449.393982">
            <stop offset="0" stop-color="#77767b"/>
            <stop offset="0.0454546" stop-color="#c0bfbc"/>
            <stop offset="0.0909091" stop-color="#9a9996"/>
            <stop offset="0.909091" stop-color="#9a9996"/>
            <stop offset="0.954545" stop-color="#c0bfbc"/>
            <stop offset="1" stop-color="#77767b"/>
        </linearGradient>
        <linearGradient id="b" gradientUnits="userSpaceOnUse" x1="32" x2="64" y1="104" y2="104">
            <stop offset="0" stop-color="#865e3c"/>
            <stop offset="0.0625" stop-color="#b5835a"/>
            <stop offset="0.125" stop-color="#986a44"/>
            <stop offset="0.875" stop-color="#986a44"/>
            <stop offset="0.9375" stop-color="#b5835a"/>
            <stop offset="1" stop-color="#865e3c"/>
        </linearGradient>
        <filter id="c" height="100%" width="100%" x="0%" y="0%">
            <feColorMatrix in="SourceGraphic" type="matrix" values="0 0 0 0 1 0 0 0 0 1 0 0 0 0 1 0 0 0 1 0"/>
        </filter>
        <mask id="d">
            <g filter="url(#c)">
                <rect fill-opacity="0.2" height="128" width="128"/>
            </g>
        </mask>
        <linearGradient id="e" gradientUnits="userSpaceOnUse" x1="68" x2="96" y1="108" y2="108">
            <stop offset="0" stop-color="#865e3c"/>
            <stop offset="0.0714286" stop-color="#b5835a"/>
            <stop offset="0.142857" stop-color="#986a44"/>
            <stop offset="0.857143" stop-color="#986a44"/>
            <stop offset="0.928571" stop-color="#b5835a"/>
            <stop offset="1" stop-color="#865e3c"/>
        </linearGradient>
        <mask id="f">
            <g filter="url(#c)">
                <rect fill-opacity="0.2" height="128" width="128"/>
            </g>
        </mask>
        <clipPath id="g">
            <path d="m 28 52 h 72 v 2 h -72 z m 0 0"/>
        </clipPath>
        <clipPath id="h">
            <path d="m 32 52 h 64 c 2.210938 0 4 1.789062 4 4 v 16 c 0 2.210938 -1.789062 4 -4 4 h -64 c -2.210938 0 -4 -1.789062 -4 -4 v -16 c 0 -2.210938 1.789062 -4 4 -4 z m 0 0"/>
        </clipPath>
        <clipPath id="i">
            <path d="m 28 58 h 72 v 2 h -72 z m 0 0"/>
        </clipPath>
        <clipPath id="j">
            <path d="m 32 52 h 64 c 2.210938 0 4 1.789062 4 4 v 16 c 0 2.210938 -1.789062 4 -4 4 h -64 c -2.210938 0 -4 -1.789062 -4 -4 v -16 c 0 -2.210938 1.789062 -4 4 -4 z m 0 0"/>
        </clipPath>
        <clipPath id="k">
            <path d="m 28 64 h 72 v 2 h -72 z m 0 0"/>
        </clipPath>
        <clipPath id="l">
            <path d="m 32 52 h 64 c 2.210938 0 4 1.789062 4 4 v 16 c 0 2.210938 -1.789062 4 -4 4 h -64 c -2.210938 0 -4 -1.789062 -4 -4 v -16 c 0 -2.210938 1.789062 -4 4 -4 z m 0 0"/>
        </clipPath>
        <clipPath id="m">
            <path d="m 28 70 h 72 v 2 h -72 z m 0 0"/>
        </clipPath>
        <clipPath id="n">
            <path d="m 32 52 h 64 c 2.210938 0 4 1.789062 4 4 v 16 c 0 2.210938 -1.789062 4 -4 4 h -64 c -2.210938 0 -4 -1.789062 -4 -4 v -16 c 0 -2.210938 1.789062 -4 4 -4 z m 0 0"/>
        </clipPath>
        <clipPath id="o">
            <path d="m 48 78 h 4 v 2 h -4 z m 0 2 h 32 v 6 h -32 z m 0 0"/>
        </clipPath>
        <clipPath id="p">
            <path d="m 48 76 h 4 v 2 h -4 z m 0 2 h 32 v 6 h -32 z m 0 0"/>
        </clipPath>
        <linearGradient id="q" gradientUnits="userSpaceOnUse" x1="47.999865" x2="87.999865" y1="84" y2="84">
            <stop offset="0" stop-color="#deddda"/>
            <stop offset="0.025" stop-color="#eeeeec"/>
            <stop offset="0.05" stop-color="#deddda"/>
            <stop offset="0.95" stop-color="#deddda"/>
            <stop offset="0.975" stop-color="#eeeeec"/>
            <stop offset="1" stop-color="#c0bfbc"/>
        </linearGradient>
        <linearGradient id="r" gradientUnits="userSpaceOnUse" x1="64.000134" x2="64.000134" y1="76" y2="80">
            <stop offset="0" stop-color="#9a9996"/>
            <stop offset="1" stop-color="#c0bfbc"/>
        </linearGradient>
        <mask id="s">
            <g filter="url(#c)">
                <rect fill-opacity="0.2" height="128" width="128"/>
            </g>
        </mask>
        <clipPath id="t">
            <rect height="152" width="192"/>
        </clipPath>
        <g id="u" clip-path="url(#t)">
            <path d="m 40 102 h 32 v 4 h -32 z m 0 0" fill="#ffffff"/>
        </g>
        <mask id="v">
            <g filter="url(#c)">
                <rect fill-opacity="0.2" height="128" width="128"/>
            </g>
        </mask>
        <clipPath id="w">
            <rect height="152" width="192"/>
        </clipPath>
        <g id="x" clip-path="url(#w)">
            <path d="m 92 96 v 28 h -4 v -28 z m 0 0" fill="#ffffff"/>
        </g>
        <clipPath id="y">
            <path d="m 28 52 h 72 v 2 h -72 z m 0 0"/>
        </clipPath>
        <clipPath id="z">
            <path d="m 32 52 h 64 c 2.210938 0 4 1.789062 4 4 v 16 c 0 2.210938 -1.789062 4 -4 4 h -64 c -2.210938 0 -4 -1.789062 -4 -4 v -16 c 0 -2.210938 1.789062 -4 4 -4 z m 0 0"/>
        </clipPath>
        <clipPath id="A">
            <path d="m 28 58 h 72 v 2 h -72 z m 0 0"/>
        </clipPath>
        <clipPath id="B">
            <path d="m 32 52 h 64 c 2.210938 0 4 1.789062 4 4 v 16 c 0 2.210938 -1.789062 4 -4 4 h -64 c -2.210938 0 -4 -1.789062 -4 -4 v -16 c 0 -2.210938 1.789062 -4 4 -4 z m 0 0"/>
        </clipPath>
        <clipPath id="C">
            <path d="m 28 64 h 72 v 2 h -72 z m 0 0"/>
        </clipPath>
        <clipPath id="D">
            <path d="m 32 52 h 64 c 2.210938 0 4 1.789062 4 4 v 16 c 0 2.210938 -1.789062 4 -4 4 h -64 c -2.210938 0 -4 -1.789062 -4 -4 v -16 c 0 -2.210938 1.789062 -4 4 -4 z m 0 0"/>
        </clipPath>
        <clipPath id="E">
            <path d="m 28 70 h 72 v 2 h -72 z m 0 0"/>
        </clipPath>
        <clipPath id="F">
            <path d="m 32 52 h 64 c 2.210938 0 4 1.789062 4 4 v 16 c 0 2.210938 -1.789062 4 -4 4 h -64 c -2.210938 0 -4 -1.789062 -4 -4 v -16 c 0 -2.210938 1.789062 -4 4 -4 z m 0 0"/>
        </clipPath>
        <clipPath id="G">
            <path d="m 48 78 h 4 v 2 h -4 z m 0 2 h 32 v 6 h -32 z m 0 0"/>
        </clipPath>
        <clipPath id="H">
            <path d="m 48 76 h 4 v 2 h -4 z m 0 2 h 32 v 6 h -32 z m 0 0"/>
        </clipPath>
        <clipPath id="I">
            <rect height="128" width="128"/>
        </clipPath>
        <clipPath id="J">
            <rect height="128" width="128"/>
        </clipPath>
        <mask id="K">
            <g clip-path="url(#J)" filter="url(#c)">
                <g clip-path="url(#I)">
                    <path d="m 28 16 h 72 c 4.417969 0 8 3.582031 8 8 v 88 c 0 4.417969 -3.582031 8 -8 8 h -72 c -4.417969 0 -8 -3.582031 -8 -8 v -88 c 0 -4.417969 3.582031 -8 8 -8 z m 0 0" fill="url(#a)"/>
                    <path d="m 28 8 h 72 c 4.417969 0 8 3.582031 8 8 v 20 c 0 4.417969 -3.582031 8 -8 8 h -72 c -4.417969 0 -8 -3.582031 -8 -8 v -20 c 0 -4.417969 3.582031 -8 8 -8 z m 0 0" fill="#deddda"/>
                    <path d="m 32 64 h 64 c 2.210938 0 4 1.789062 4 4 v 40 c 0 2.210938 -1.789062 4 -4 4 h -64 c -2.210938 0 -4 -1.789062 -4 -4 v -40 c 0 -2.210938 1.789062 -4 4 -4 z m 0 0" fill="#3d3846"/>
                    <path d="m 36 80 h 24 c 2.210938 0 4 1.789062 4 4 v 16 c 0 2.210938 -1.789062 4 -4 4 h -24 c -2.210938 0 -4 -1.789062 -4 -4 v -16 c 0 -2.210938 1.789062 -4 4 -4 z m 0 0" fill="url(#b)"/>
                    <path d="m 36 80 h 24 c 2.210938 0 4 1.789062 4 4 v 8 c 0 2.210938 -1.789062 4 -4 4 h -24 c -2.210938 0 -4 -1.789062 -4 -4 v -8 c 0 -2.210938 1.789062 -4 4 -4 z m 0 0" fill="#b5835a"/>
                    <use mask="url(#s)" transform="matrix(1 0 0 1 -8 -16)" xlink:href="#u"/>
                    <path d="m 72 80 h 20 c 2.210938 0 4 1.789062 4 4 v 20 c 0 2.210938 -1.789062 4 -4 4 h -20 c -2.210938 0 -4 -1.789062 -4 -4 v -20 c 0 -2.210938 1.789062 -4 4 -4 z m 0 0" fill="url(#e)"/>
                    <path d="m 72 80 h 20 c 2.210938 0 4 1.789062 4 4 v 8 c 0 2.210938 -1.789062 4 -4 4 h -20 c -2.210938 0 -4 -1.789062 -4 -4 v -8 c 0 -2.210938 1.789062 -4 4 -4 z m 0 0" fill="#b5835a"/>
                    <use mask="url(#v)" transform="matrix(1 0 0 1 -8 -16)" xlink:href="#x"/>
                    <path d="m 32 52 h 64 c 2.210938 0 4 1.789062 4 4 v 16 c 0 2.210938 -1.789062 4 -4 4 h -64 c -2.210938 0 -4 -1.789062 -4 -4 v -16 c 0 -2.210938 1.789062 -4 4 -4 z m 0 0" fill="#62a0ea"/>
                    <g clip-path="url(#y)">
                        <g clip-path="url(#z)">
                            <path d="m 28 52 h 72 v 2 h -72 z m 0 0" fill="#3584e4"/>
                        </g>
                    </g>
                    <g clip-path="url(#A)">
                        <g clip-path="url(#B)">
                            <path d="m 28 58 h 72 v 2 h -72 z m 0 0" fill="#3584e4"/>
                        </g>
                    </g>
                    <g clip-path="url(#C)">
                        <g clip-path="url(#D)">
                            <path d="m 28 64 h 72 v 2 h -72 z m 0 0" fill="#3584e4"/>
                        </g>
                    </g>
                    <g clip-path="url(#E)">
                        <g clip-path="url(#F)">
                            <path d="m 28 70 h 72 v 2 h -72 z m 0 0" fill="#3584e4"/>
                        </g>
                    </g>
                    <path d="m 28 76 h 72 v 8 h -72 z m 0 0" fill-opacity="0.2"/>
                    <path d="m 28 74 h 72 v 8 h -72 z m 0 0" fill="#deddda"/>
                    <path d="m 28 72 h 72 v 2 h -72 z m 0 0" fill="#c0bfbc"/>
                    <g clip-path="url(#G)">
                        <path d="m 50 78 h 28 c 1.109375 0 2 0.890625 2 2 v 4 c 0 1.109375 -0.890625 2 -2 2 h -28 c -1.109375 0 -2 -0.890625 -2 -2 v -4 c 0 -1.109375 0.890625 -2 2 -2 z m 0 0" fill-opacity="0.2"/>
                    </g>
                    <g clip-path="url(#H)">
                        <path d="m 50 76 h 28 c 1.109375 0 2 0.890625 2 2 v 4 c 0 1.109375 -0.890625 2 -2 2 h -28 c -1.109375 0 -2 -0.890625 -2 -2 v -4 c 0 -1.109375 0.890625 -2 2 -2 z m 0 0" fill="url(#q)"/>
                    </g>
                    <path d="m 48 76 v 2 c 0 1.109375 0.890625 2 2 2 h 28 c 1.109375 0 2 -0.890625 2 -2 v -2 h -4 v 2 h -24 v -2 z m 0 0" fill="url(#r)"/>
                </g>
            </g>
        </mask>
        <mask id="L">
            <g filter="url(#c)">
                <rect fill-opacity="0.8" height="128" width="128"/>
            </g>
        </mask>
        <linearGradient id="M" gradientTransform="matrix(0 0.37 -0.98462 0 295.38501 -30.360001)" gradientUnits="userSpaceOnUse" x1="300" x2="428" y1="235" y2="235">
            <stop offset="0" stop-color="#f9f06b"/>
            <stop offset="1" stop-color="#f5c211"/>
        </linearGradient>
        <clipPath id="N">
            <rect height="128" width="128"/>
        </clipPath>
        <clipPath id="O">
            <rect height="128" width="128"/>
        </clipPath>
    </defs>
    <path d="m 28 16 h 72 c 4.417969 0 8 3.582031 8 8 v 88 c 0 4.417969 -3.582031 8 -8 8 h -72 c -4.417969 0 -8 -3.582031 -8 -8 v -88 c 0 -4.417969 3.582031 -8 8 -8 z m 0 0" fill="url(#a)"/>
    <path d="m 28 8 h 72 c 4.417969 0 8 3.582031 8 8 v 20 c 0 4.417969 -3.582031 8 -8 8 h -72 c -4.417969 0 -8 -3.582031 -8 -8 v -20 c 0 -4.417969 3.582031 -8 8 -8 z m 0 0" fill="#deddda"/>
    <path d="m 32 64 h 64 c 2.210938 0 4 1.789062 4 4 v 40 c 0 2.210938 -1.789062 4 -4 4 h -64 c -2.210938 0 -4 -1.789062 -4 -4 v -40 c 0 -2.210938 1.789062 -4 4 -4 z m 0 0" fill="#3d3846"/>
    <path d="m 36 80 h 24 c 2.210938 0 4 1.789062 4 4 v 16 c 0 2.210938 -1.789062 4 -4 4 h -24 c -2.210938 0 -4 -1.789062 -4 -4 v -16 c 0 -2.210938 1.789062 -4 4 -4 z m 0 0" fill="url(#b)"/>
    <path d="m 36 80 h 24 c 2.210938 0 4 1.789062 4 4 v 8 c 0 2.210938 -1.789062 4 -4 4 h -24 c -2.210938 0 -4 -1.789062 -4 -4 v -8 c 0 -2.210938 1.789062 -4 4 -4 z m 0 0" fill="#b5835a"/>
    <use mask="url(#d)" transform="matrix(1 0 0 1 -8 -16)" xlink:href="#u"/>
    <path d="m 72 80 h 20 c 2.210938 0 4 1.789062 4 4 v 20 c 0 2.210938 -1.789062 4 -4 4 h -20 c -2.210938 0 -4 -1.789062 -4 -4 v -20 c 0 -2.210938 1.789062 -4 4 -4 z m 0 0" fill="url(#e)"/>
    <path d="m 72 80 h 20 c 2.210938 0 4 1.789062 4 4 v 8 c 0 2.210938 -1.789062 4 -4 4 h -20 c -2.210938 0 -4 -1.789062 -4 -4 v -8 c 0 -2.210938 1.789062 -4 4 -4 z m 0 0" fill="#b5835a"/>
    <use mask="url(#f)" transform="matrix(1 0 0 1 -8 -16)" xlink:href="#x"/>
    <path d="m 32 52 h 64 c 2.210938 0 4 1.789062 4 4 v 16 c 0 2.210938 -1.789062 4 -4 4 h -64 c -2.210938 0 -4 -1.789062 -4 -4 v -16 c 0 -2.210938 1.789062 -4 4 -4 z m 0 0" fill="#62a0ea"/>
    <g clip-path="url(#g)">
        <g clip-path="url(#h)">
            <path d="m 28 52 h 72 v 2 h -72 z m 0 0" fill="#3584e4"/>
        </g>
    </g>
    <g clip-path="url(#i)">
        <g clip-path="url(#j)">
            <path d="m 28 58 h 72 v 2 h -72 z m 0 0" fill="#3584e4"/>
        </g>
    </g>
    <g clip-path="url(#k)">
        <g clip-path="url(#l)">
            <path d="m 28 64 h 72 v 2 h -72 z m 0 0" fill="#3584e4"/>
        </g>
    </g>
    <g clip-path="url(#m)">
        <g clip-path="url(#n)">
            <path d="m 28 70 h 72 v 2 h -72 z m 0 0" fill="#3584e4"/>
        </g>
    </g>
    <path d="m 28 76 h 72 v 8 h -72 z m 0 0" fill-opacity="0.2"/>
    <path d="m 28 74 h 72 v 8 h -72 z m 0 0" fill="#deddda"/>
    <path d="m 28 72 h 72 v 2 h -72 z m 0 0" fill="#c0bfbc"/>
    <g clip-path="url(#o)">
        <path d="m 50 78 h 28 c 1.109375 0 2 0.890625 2 2 v 4 c 0 1.109375 -0.890625 2 -2 2 h -28 c -1.109375 0 -2 -0.890625 -2 -2 v -4 c 0 -1.109375 0.890625 -2 2 -2 z m 0 0" fill-opacity="0.2"/>
    </g>
    <g clip-path="url(#p)">
        <path d="m 50 76 h 28 c 1.109375 0 2 0.890625 2 2 v 4 c 0 1.109375 -0.890625 2 -2 2 h -28 c -1.109375 0 -2 -0.890625 -2 -2 v -4 c 0 -1.109375 0.890625 -2 2 -2 z m 0 0" fill="url(#q)"/>
    </g>
    <path d="m 48 76 v 2 c 0 1.109375 0.890625 2 2 2 h 28 c 1.109375 0 2 -0.890625 2 -2 v -2 h -4 v 2 h -24 v -2 z m 0 0" fill="url(#r)"/>
    <g clip-path="url(#O)" mask="url(#K)">
        <g clip-path="url(#N)" mask="url(#L)">
            <path d="m 128 80.640625 v 47.359375 h -128 v -47.359375 z m 0 0" fill="url(#M)"/>
            <path d="m 13.308594 80.640625 l 47.355468 47.359375 h 21.214844 l -47.359375 -47.359375 z m 42.421875 0 l 47.363281 47.359375 h 21.214844 l -47.363282 -47.359375 z m 42.429687 0 l 29.839844 29.839844 v -21.210938 l -8.628906 -8.628906 z m -98.160156 7.90625 v 21.214844 l 18.238281 18.238281 h 21.214844 z m 0 0"/>
        </g>
    </g>
</svg>
