<svg xmlns="http://www.w3.org/2000/svg" xmlns:xlink="http://www.w3.org/1999/xlink" width="600" height="300"><defs><linearGradient id="c"><stop offset="0" style="stop-color:#deddda;stop-opacity:1"/><stop offset=".5" style="stop-color:#9a9996;stop-opacity:1"/></linearGradient><linearGradient id="g"><stop offset="0" style="stop-color:#241f31;stop-opacity:1"/><stop offset=".571" style="stop-color:#241f31;stop-opacity:1"/><stop offset=".786" style="stop-color:#3d3846;stop-opacity:1"/><stop offset="1" style="stop-color:#241f31;stop-opacity:1"/></linearGradient><linearGradient id="d"><stop offset="0" style="stop-color:#deddda;stop-opacity:1"/><stop offset=".5" style="stop-color:#9a9996;stop-opacity:1"/></linearGradient><linearGradient id="f"><stop offset="0" style="stop-color:#f9f06b;stop-opacity:1"/><stop offset="1" style="stop-color:#f5c211;stop-opacity:1"/></linearGradient><linearGradient id="b"><stop offset="0" style="stop-color:#e01b24;stop-opacity:1"/><stop offset=".5" style="stop-color:#f66151;stop-opacity:1"/><stop offset="1" style="stop-color:#e01b24;stop-opacity:1"/></linearGradient><linearGradient id="e"><stop offset="0" style="stop-color:#241f31;stop-opacity:1"/><stop offset=".5" style="stop-color:#241f31;stop-opacity:1"/><stop offset=".75" style="stop-color:#3d3846;stop-opacity:1"/><stop offset="1" style="stop-color:#241f31;stop-opacity:1"/></linearGradient><linearGradient xlink:href="#a" id="h" x1="217.668" x2="1784.667" y1="690.508" y2="690.508" gradientTransform="matrix(-.3 0 0 -.3 562.6 323.372)" gradientUnits="userSpaceOnUse"/><linearGradient xlink:href="#b" id="l" x1="1598" x2="1654" y1="472.001" y2="472.001" gradientTransform="translate(-1380)" gradientUnits="userSpaceOnUse"/><linearGradient xlink:href="#c" id="n" x1="1606" x2="1606" y1="446" y2="546" gradientTransform="translate(0 1)" gradientUnits="userSpaceOnUse"/><linearGradient xlink:href="#d" id="o" x1="1606" x2="1606" y1="446" y2="546" gradientTransform="translate(0 21)" gradientUnits="userSpaceOnUse"/><linearGradient id="a"><stop offset="0" style="stop-color:#ffa348;stop-opacity:1"/><stop offset=".5" style="stop-color:#c061cb;stop-opacity:1"/><stop offset="1" style="stop-color:#62a0ea;stop-opacity:1"/></linearGradient><radialGradient xlink:href="#e" id="m" cx="948" cy="516" r="24" fx="948" fy="516" gradientUnits="userSpaceOnUse"/><radialGradient xlink:href="#f" id="j" cx="1640" cy="444" r="8" fx="1640" fy="444" gradientTransform="rotate(90 924 -272)" gradientUnits="userSpaceOnUse"/><radialGradient xlink:href="#f" id="k" cx="1640" cy="444" r="8" fx="1640" fy="444" gradientTransform="rotate(90 916 -264)" gradientUnits="userSpaceOnUse"/><radialGradient xlink:href="#e" id="i" cx="948" cy="516" r="24" fx="948" fy="516" gradientUnits="userSpaceOnUse"/><radialGradient xlink:href="#g" id="p" cx="1574" cy="558" r="14" fx="1574" fy="558" gradientUnits="userSpaceOnUse"/></defs><path d="M50 144c-2.216 0-4 1.784-4 4s1.784 4 4 4h20a3.988 3.988 0 0 0 3.465-2H76v16h-2.535A3.988 3.988 0 0 0 70 164H50c-2.216 0-4 1.784-4 4s1.784 4 4 4h20a3.988 3.988 0 0 0 3.465-2H76v53.143l-10.408 6.01A14 14 0 0 0 54 223a14 14 0 0 0-14 14 14 14 0 0 0 4.252 10A14 14 0 0 0 40 257a14 14 0 0 0 14 14 14 14 0 0 0 13.928-13H76v13h57c2.77 0 5-2.23 5-5s-2.23-5-5-5H80v-10h53c2.77 0 5-2.23 5-5s-2.23-5-5-5H80v-93a2 2 0 0 0-2-2h-4.535A3.988 3.988 0 0 0 70 144Zm26 81.451V236h-8.041a14 14 0 0 0-1.367-5.115zM67.928 238H76v5.143l-10.408 6.01a14 14 0 0 0-1.82-2.176A14 14 0 0 0 67.927 238ZM76 245.451V256h-8.041a14 14 0 0 0-1.367-5.115z" style="color:#000;opacity:.2;fill:#000;fill-opacity:1;stroke:none;stroke-linecap:round;stroke-linejoin:round;-inkscape-stroke:none"/><path d="M500.6 241.013v-.56a35.08 35.08 0 0 0-35.08-35.08h-17.948a8 8 0 0 1-8-8v-3.28a8 8 0 0 1 8-8h73.948a35.08 35.08 0 0 0 35.08-35.08v-.56a35.08 35.08 0 0 0-35.08-35.08H419.2a8 8 0 0 1-8-8v-2a8 8 0 0 1 8-8h4.32a35.08 35.08 0 0 0 35.08-35.08v-.561a35.08 35.08 0 0 0-35.08-35.08H45.68a35.08 35.08 0 0 0-35.08 35.08v.56a35.08 35.08 0 0 0 35.08 35.08H291.2a8 8 0 0 1 8 8v2a8 8 0 0 1-8 8h-79.52a35.08 35.08 0 0 0-35.08 35.08v.56a35.08 35.08 0 0 0 35.08 35.08h21.303a9.617 9.617 0 0 1 9.617 9.618v.045a9.617 9.617 0 0 1-9.617 9.617h-7.303a35.08 35.08 0 0 0-35.08 35.08v.56a35.08 35.08 0 0 0 35.08 35.08h239.84a35.08 35.08 0 0 0 35.08-35.08Z" style="font-variation-settings:normal;fill:url(#h);fill-opacity:1;stroke:none;stroke-width:2;stroke-linecap:butt;stroke-linejoin:miter;stroke-miterlimit:4;stroke-dasharray:none;stroke-dashoffset:0;stroke-opacity:.956856;stop-color:#000"/><path d="M384 64v40h-36v5.334L316 152v20a8 8 0 0 0-8 8 8 8 0 0 0 8 8 8 8 0 0 0-8 8 8 8 0 0 0 1.092 4H306c-2.216 0-4 1.784-4 4v13.486a5.791 5.791 0 0 0-2 4.38v.269c0 3.249 2.676 5.865 6 5.865h20.371A24 24 0 0 0 350 248a24 24 0 0 0 23.629-20H394c.816 0 1.593-.157 2.3-.443 1.19.28 2.424.443 3.7.443h66.371a24 24 0 0 0 .092.42 24 24 0 0 0 .328 1.512 24 24 0 0 0 .49 1.66 24 24 0 0 0 .121.408h.032A24 24 0 0 0 490 248a24 24 0 0 0 22.566-16h.032a24 24 0 0 0 .12-.408 24 24 0 0 0 .49-1.66 24 24 0 0 0 .33-1.512 24 24 0 0 0 .09-.42H528c8.864 0 16-7.136 16-16V64Zm0 148c0 1.385.192 2.72.52 4H384Z" style="opacity:.2;fill:#000;stroke-width:.5;stroke-linecap:round;stroke-linejoin:round"/><path d="M127.5 108.5h145v28h-145z" style="opacity:.2;fill:#000;fill-opacity:1;stroke:none;stroke-width:4.19235;stroke-linecap:round;stroke-linejoin:round;stroke-dasharray:none;stroke-opacity:1"/><g transform="translate(104 -272)"><g transform="translate(-562 -24)"><circle cx="948" cy="516" r="24" style="opacity:1;fill:url(#i);fill-opacity:1;stroke-width:.5;stroke-linecap:round;stroke-linejoin:round"/><circle cx="948" cy="516" r="12" style="opacity:1;fill:#f6f5f4;fill-opacity:1;stroke-width:.5;stroke-linecap:round;stroke-linejoin:round"/></g><path d="M386 468a24 24 0 0 0-24 24 24 24 0 0 0 1.402 8h45.196a24 24 0 0 0 1.402-8 24 24 0 0 0-24-24Z" style="opacity:.2;fill:#000;fill-opacity:1;stroke-width:.5;stroke-linecap:round;stroke-linejoin:round"/><rect width="18" height="28" x="198" y="468" rx="4" ry="4" style="opacity:1;fill:#deddda;fill-opacity:1;stroke:none;stroke-width:4;stroke-linecap:round;stroke-linejoin:round;stroke-dasharray:none;stroke-opacity:1"/><circle cx="212" cy="448" r="8" style="opacity:1;fill:url(#j);fill-opacity:1;stroke:none;stroke-width:4;stroke-linecap:round;stroke-linejoin:round;stroke-dasharray:none;stroke-opacity:1"/><circle cx="212" cy="464" r="8" style="opacity:1;fill:url(#k);fill-opacity:1;stroke:none;stroke-width:4;stroke-linecap:round;stroke-linejoin:round;stroke-dasharray:none;stroke-opacity:1"/><path d="M248 396h32v48h-68z" style="opacity:1;fill:#3584e4;stroke-width:.478107;stroke-linecap:round;stroke-linejoin:round"/><path d="m212 420 36-48v24l-36 48z" style="opacity:1;fill:#62a0ea;stroke-width:.478107;stroke-linecap:round;stroke-linejoin:round"/><path d="M244 376h36v24h-36z" style="opacity:1;fill:#c01c28;fill-opacity:1;stroke-width:.46291;stroke-linecap:round;stroke-linejoin:round"/><path d="M244 372h36v24h-36z" style="opacity:1;fill:#f66151;fill-opacity:1;stroke-width:.46291;stroke-linecap:round;stroke-linejoin:round"/><path d="m215 440 30-40" style="opacity:1;fill:none;fill-opacity:1;stroke:#99c1f1;stroke-width:4;stroke-linecap:round;stroke-linejoin:round;stroke-dasharray:none;stroke-opacity:1"/><path d="M212 444h68v52h-68z" style="opacity:1;fill:#a51d2d;fill-opacity:1;stroke:none;stroke-width:4.5607;stroke-linecap:round;stroke-linejoin:round;stroke-dasharray:none;stroke-opacity:1"/><path d="M212 444h68v52h-68z" style="opacity:.6;fill:#000;fill-opacity:1;stroke:none;stroke-width:4.5607;stroke-linecap:round;stroke-linejoin:round;stroke-dasharray:none;stroke-opacity:1"/><g style="fill:#77767b"><path d="M1730 484c3.324 0 6 2.616 6 5.865v.27c0 3.249-2.676 5.865-6 5.865h-16v-12zm-88 0c-3.324 0-6 2.616-6 5.865v.27c0 3.249 2.676 5.865 6 5.865h16v-12z" style="fill:#77767b;fill-opacity:1;stroke:none;stroke-width:4;stroke-linecap:round;stroke-linejoin:round;stroke-dasharray:none;stroke-opacity:1" transform="translate(-1440)"/></g><path d="M212 444v40h6.29a28 28 0 0 1 .845-3.889 28 28 0 0 1 1.396-3.742 28 28 0 0 1 1.914-3.508 28 28 0 0 1 2.395-3.197 28 28 0 0 1 2.824-2.824 28 28 0 0 1 3.197-2.395 28 28 0 0 1 3.508-1.914 28 28 0 0 1 3.742-1.396 28 28 0 0 1 3.905-.85A28 28 0 0 1 246 460a28 28 0 0 1 1.373.033 28 28 0 0 1 1.371.102 28 28 0 0 1 1.365.168 28 28 0 0 1 1.354.234 28 28 0 0 1 1.34.303 28 28 0 0 1 1.326.365 28 28 0 0 1 1.305.432 28 28 0 0 1 1.28.494 28 28 0 0 1 1.257.557 28 28 0 0 1 1.228.619 28 28 0 0 1 1.195.677 28 28 0 0 1 1.163.735 28 28 0 0 1 1.123.79 28 28 0 0 1 1.084.846 28 28 0 0 1 1.039.899 28 28 0 0 1 .996.947 28 28 0 0 1 .947.996 28 28 0 0 1 .898 1.04 28 28 0 0 1 .846 1.083 28 28 0 0 1 .791 1.123 28 28 0 0 1 .735 1.162 28 28 0 0 1 .677 1.196 28 28 0 0 1 .62 1.228 28 28 0 0 1 .556 1.256 28 28 0 0 1 .494 1.281 28 28 0 0 1 .432 1.305 28 28 0 0 1 .365 1.326 28 28 0 0 1 .303 1.34 28 28 0 0 1 .234 1.354 28 28 0 0 1 .014.109H280v-40z" style="opacity:1;fill:#c01c28;fill-opacity:1;stroke:none;stroke-width:4;stroke-linecap:round;stroke-linejoin:round;stroke-dasharray:none;stroke-opacity:1"/><path d="M246 456a28 28 0 0 0-28 28 28 28 0 0 0 .29 4A28 28 0 0 1 246 464a28 28 0 0 1 27.71 24.002A28 28 0 0 0 274 484a28 28 0 0 0-28-28Z" style="opacity:1;fill:url(#l);fill-opacity:1;stroke:none;stroke-width:3.73333;stroke-linecap:round;stroke-linejoin:round;stroke-dasharray:none;stroke-opacity:1"/><g transform="translate(-702 -24)"><circle cx="948" cy="516" r="24" style="opacity:1;fill:url(#m);fill-opacity:1;stroke-width:.5;stroke-linecap:round;stroke-linejoin:round"/><circle cx="948" cy="516" r="12" style="opacity:1;fill:#f6f5f4;fill-opacity:1;stroke-width:.5;stroke-linecap:round;stroke-linejoin:round"/></g><g transform="translate(-1712 16)"><rect width="160" height="160" x="1992" y="320" rx="16" ry="16" style="opacity:1;fill:#9a9996;fill-opacity:1;stroke-width:.5;stroke-linecap:round;stroke-linejoin:round"/><rect width="160" height="160" x="1992" y="316" rx="16" ry="16" style="opacity:1;fill:#c0bfbc;fill-opacity:1;stroke-width:.5;stroke-linecap:round;stroke-linejoin:round"/><rect width="160" height="24" x="1992" y="316" rx="0" ry="0" style="opacity:1;fill:#deddda;fill-opacity:1;stroke-width:.5;stroke-linecap:round;stroke-linejoin:round"/><g fill="#241f31" style="display:inline;fill:#3d3846;enable-background:new"><path d="M163.188 172c-1.205 0-2.188 1.018-2.188 2.219v11.56c0 1.202.983 2.221 2.188 2.221h9.625c1.205 0 2.187-1.018 2.187-2.219v-11.56c0-1.202-.982-2.221-2.188-2.221Zm-.188 3h10v11h-10zm1 5v5h4v-5zm5 2v3h3v-3z" style="fill:#3d3846" transform="matrix(4 0 0 4 1400 -312)"/><path fill-opacity=".5" d="M163 175h10v4h-10z" style="fill:#3d3846" transform="matrix(4 0 0 4 1400 -312)"/></g></g></g><g transform="translate(-1526 -305)"><path d="M1576 449h28v96" style="opacity:1;fill:none;fill-opacity:1;stroke:url(#n);stroke-width:4;stroke-linecap:round;stroke-linejoin:round;stroke-dasharray:none;stroke-opacity:1"/><rect width="28" height="8" x="1572" y="445" rx="4" ry="4" style="opacity:1;fill:#986a44;fill-opacity:1;stroke:none;stroke-width:4;stroke-linecap:round;stroke-linejoin:round;stroke-dasharray:none;stroke-opacity:1"/><path d="M1602 542v10h57c2.77 0 5-2.23 5-5s-2.23-5-5-5z" style="opacity:1;fill:#9a9996;fill-opacity:1;stroke:none;stroke-width:6.76123;stroke-linecap:round;stroke-linejoin:round;stroke-dasharray:none;stroke-opacity:1"/><g transform="translate(6 -20)"><circle cx="1574" cy="558" r="14" style="opacity:1;fill:#241f31;fill-opacity:1;stroke:none;stroke-width:4;stroke-linecap:round;stroke-linejoin:round;stroke-dasharray:none;stroke-opacity:1"/><circle cx="1574" cy="558" r="8" style="opacity:1;fill:#3d3846;fill-opacity:1;stroke:none;stroke-width:5.33333;stroke-linecap:round;stroke-linejoin:round;stroke-dasharray:none;stroke-opacity:1"/></g><rect width="28" height="2" x="1099.32" y="1254.92" rx="0" ry="0" style="opacity:1;fill:#3d3846;fill-opacity:1;stroke:none;stroke-width:4.51261;stroke-linecap:round;stroke-linejoin:round;stroke-dasharray:none;stroke-opacity:1" transform="rotate(-30)"/><rect width="24" height="2" x="1580" y="537" rx="0" ry="0" style="opacity:1;fill:#3d3846;fill-opacity:1;stroke:none;stroke-width:4.17787;stroke-linecap:round;stroke-linejoin:round;stroke-dasharray:none;stroke-opacity:1"/><g style="fill:#9a9996"><rect width="28" height="2" x="1089.32" y="1272.241" rx="0" ry="0" style="opacity:1;fill:#9a9996;fill-opacity:1;stroke:none;stroke-width:4.51261;stroke-linecap:round;stroke-linejoin:round;stroke-dasharray:none;stroke-opacity:1" transform="rotate(-30)"/><rect width="24" height="2" x="1580" y="557" rx="0" ry="0" style="opacity:1;fill:#9a9996;fill-opacity:1;stroke:none;stroke-width:4.17787;stroke-linecap:round;stroke-linejoin:round;stroke-dasharray:none;stroke-opacity:1"/></g><path d="M1576 469h28v96" style="opacity:1;fill:none;fill-opacity:1;stroke:url(#o);stroke-width:4;stroke-linecap:round;stroke-linejoin:round;stroke-dasharray:none;stroke-opacity:1"/><rect width="28" height="8" x="1572" y="465" rx="4" ry="4" style="opacity:1;fill:#986a44;fill-opacity:1;stroke:none;stroke-width:4;stroke-linecap:round;stroke-linejoin:round;stroke-dasharray:none;stroke-opacity:1"/><path d="M1602 562v10h57c2.77 0 5-2.23 5-5s-2.23-5-5-5z" style="opacity:1;fill:#9a9996;fill-opacity:1;stroke:none;stroke-width:6.76123;stroke-linecap:round;stroke-linejoin:round;stroke-dasharray:none;stroke-opacity:1"/><g transform="translate(6)"><circle cx="1574" cy="558" r="14" style="opacity:1;fill:url(#p);fill-opacity:1;stroke:none;stroke-width:4;stroke-linecap:round;stroke-linejoin:round;stroke-dasharray:none;stroke-opacity:1"/><circle cx="1574" cy="558" r="8" style="opacity:1;fill:#f6f5f4;fill-opacity:1;stroke:none;stroke-width:5.33333;stroke-linecap:round;stroke-linejoin:round;stroke-dasharray:none;stroke-opacity:1"/></g></g><rect width="64" height="64" x="88" y="203" rx="8.533" ry="8.533" style="opacity:.2;fill:#000;fill-opacity:1;stroke:none;stroke-width:4.26667;stroke-linecap:round;stroke-linejoin:round;stroke-dasharray:none;stroke-opacity:1"/><g transform="translate(236 35)"><rect width="64" height="64" x="-148" y="164" rx="8.533" ry="8.533" style="opacity:1;fill:#986a44;fill-opacity:1;stroke:none;stroke-width:4.26667;stroke-linecap:round;stroke-linejoin:round;stroke-dasharray:none;stroke-opacity:1"/><path d="M-148 172.533V180h64v-7.467A8.514 8.514 0 0 0-92.533 164h-46.934a8.514 8.514 0 0 0-8.533 8.533z" style="opacity:1;fill:#b5835a;fill-opacity:1;stroke:none;stroke-width:4.26667;stroke-linecap:round;stroke-linejoin:round;stroke-dasharray:none;stroke-opacity:1"/><path d="M-124 164h16v32l-16-8z" style="opacity:.2;fill:#fff;stroke-width:3.82474;stroke-linecap:round;stroke-linejoin:round"/></g><path d="M-9505-6317.48h25v30h-25z" style="font-variation-settings:normal;opacity:1;fill:#e66100;fill-opacity:1;stroke:none;stroke-width:5.61776;stroke-linecap:butt;stroke-linejoin:miter;stroke-miterlimit:4;stroke-dasharray:none;stroke-dashoffset:0;stroke-opacity:1;marker:none;stop-color:#000;stop-opacity:1" transform="matrix(-.25 0 0 .25 -2192.5 1619.37)"/><path d="M-9480-6317.48h20v30h-20z" style="font-variation-settings:normal;opacity:1;fill:#af3e00;fill-opacity:1;stroke:none;stroke-width:5.02468;stroke-linecap:butt;stroke-linejoin:miter;stroke-miterlimit:4;stroke-dasharray:none;stroke-dashoffset:0;stroke-opacity:1;marker:none;stop-color:#000;stop-opacity:1" transform="matrix(-.25 0 0 .25 -2192.5 1619.37)"/><path d="M9280-6307.48h570v360h-570z" style="font-variation-settings:normal;opacity:1;fill:#ff7800;fill-opacity:1;stroke:none;stroke-width:5.2607;stroke-linecap:butt;stroke-linejoin:miter;stroke-miterlimit:4;stroke-dasharray:none;stroke-dashoffset:0;stroke-opacity:1;marker:none;stop-color:#000;stop-opacity:1" transform="matrix(.25 0 0 .25 -2192.5 1619.37)"/><path d="M9660-6307.48h200v360h-200z" style="font-variation-settings:normal;opacity:1;fill:#c64600;fill-opacity:1;stroke:none;stroke-width:5.02468;stroke-linecap:butt;stroke-linejoin:miter;stroke-miterlimit:4;stroke-dasharray:none;stroke-dashoffset:0;stroke-opacity:1;marker:none;stop-color:#000;stop-opacity:1" transform="matrix(.25 0 0 .25 -2192.5 1619.37)"/><path d="M9300-6287.48h20v320h-20zm40 0h20v320h-20zm40 0h20v320h-20zm40 0h20v320h-20zm40 0h20v320h-20zm40 0h20v320h-20zm40 0h20v320h-20zm40 0h20v320h-20zm40 0h20v320h-20z" style="font-variation-settings:normal;opacity:1;fill:#e66100;fill-opacity:1;stroke:none;stroke-width:4.94796;stroke-linecap:butt;stroke-linejoin:miter;stroke-miterlimit:4;stroke-dasharray:none;stroke-dashoffset:0;stroke-opacity:1;marker:none;stop-color:#000;stop-opacity:1" transform="matrix(.25 0 0 .25 -2192.5 1619.37)"/><path d="m9300-6277.48 20-5h20l20 5h20l20-5h20l20 5h20l20-5h20l20 5h20l20-5h20l20 5h20l20-10h-340z" style="fill:#c64600;fill-opacity:1;stroke:none;stroke-width:1px;stroke-linecap:butt;stroke-linejoin:miter;stroke-opacity:1" transform="matrix(.25 0 0 .25 -2192.5 1619.37)"/><path d="M9635-6317.48h25v30h-25z" style="font-variation-settings:normal;opacity:1;fill:#e66100;fill-opacity:1;stroke:none;stroke-width:5.61776;stroke-linecap:butt;stroke-linejoin:miter;stroke-miterlimit:4;stroke-dasharray:none;stroke-dashoffset:0;stroke-opacity:1;marker:none;stop-color:#000;stop-opacity:1" transform="matrix(.25 0 0 .25 -2192.5 1619.37)"/><path d="M9660-6317.48h20v30h-20zm180 0h20v30h-20z" style="font-variation-settings:normal;opacity:1;fill:#af3e00;fill-opacity:1;stroke:none;stroke-width:5.02468;stroke-linecap:butt;stroke-linejoin:miter;stroke-miterlimit:4;stroke-dasharray:none;stroke-dashoffset:0;stroke-opacity:1;marker:none;stop-color:#000;stop-opacity:1" transform="matrix(.25 0 0 .25 -2192.5 1619.37)"/><path d="M9280-6317.48h25v30h-25z" style="font-variation-settings:normal;opacity:1;fill:#e66100;fill-opacity:1;stroke:none;stroke-width:5.61776;stroke-linecap:butt;stroke-linejoin:miter;stroke-miterlimit:4;stroke-dasharray:none;stroke-dashoffset:0;stroke-opacity:1;marker:none;stop-color:#000;stop-opacity:1" transform="matrix(.25 0 0 .25 -2192.5 1619.37)"/><path d="M9680-6277.48h160v310h-160z" style="font-variation-settings:normal;fill:#d04800;fill-opacity:1;stroke:none;stroke-width:7.10597;stroke-linecap:butt;stroke-linejoin:miter;stroke-miterlimit:4;stroke-dasharray:none;stroke-dashoffset:0;stroke-opacity:1;marker:none;stop-color:#000" transform="matrix(.25 0 0 .25 -2192.5 1619.37)"/><path d="M9680-6287.48h160v10h-160z" style="font-variation-settings:normal;opacity:1;fill:#af3e00;fill-opacity:1;stroke:none;stroke-width:5.02468;stroke-linecap:butt;stroke-linejoin:miter;stroke-miterlimit:4;stroke-dasharray:none;stroke-dashoffset:0;stroke-opacity:1;marker:none;stop-color:#000;stop-opacity:1" transform="matrix(.25 0 0 .25 -2192.5 1619.37)"/><path d="M9680-5977.48h160v10h-160zm70-300h10v300h-10z" style="font-variation-settings:normal;opacity:1;fill:#e66100;fill-opacity:1;stroke:none;stroke-width:5.02468;stroke-linecap:butt;stroke-linejoin:miter;stroke-miterlimit:4;stroke-dasharray:none;stroke-dashoffset:0;stroke-opacity:1;marker:none;stop-color:#000;stop-opacity:1" transform="matrix(.25 0 0 .25 -2192.5 1619.37)"/><path d="M9740-6277.48h10v300h-10z" style="font-variation-settings:normal;opacity:1;fill:#af3e00;fill-opacity:1;stroke:none;stroke-width:5.02468;stroke-linecap:butt;stroke-linejoin:miter;stroke-miterlimit:4;stroke-dasharray:none;stroke-dashoffset:0;stroke-opacity:1;marker:none;stop-color:#000;stop-opacity:1" transform="matrix(.25 0 0 .25 -2192.5 1619.37)"/><path d="M9760-6297.48h10v335h-10z" style="font-variation-settings:normal;opacity:1;fill:#9a9996;fill-opacity:1;stroke:none;stroke-width:5.02468;stroke-linecap:butt;stroke-linejoin:miter;stroke-miterlimit:4;stroke-dasharray:none;stroke-dashoffset:0;stroke-opacity:1;marker:none;stop-color:#000;stop-opacity:1" transform="matrix(.25 0 0 .25 -2187.5 1619.37)"/><path d="M9750-6262.48h20v25h-20zm0 245h20v25h-20z" style="font-variation-settings:normal;opacity:1;fill:#9a9996;fill-opacity:1;stroke:none;stroke-width:5.02468;stroke-linecap:butt;stroke-linejoin:miter;stroke-miterlimit:4;stroke-dasharray:none;stroke-dashoffset:0;stroke-opacity:1;marker:none;stop-color:#000;stop-opacity:1" transform="matrix(.25 0 0 .25 -2187.5 1619.37)"/><path d="M9760-6297.48h5v335h-5z" style="font-variation-settings:normal;opacity:1;fill:#f6f5f4;fill-opacity:1;stroke:none;stroke-width:3.55299;stroke-linecap:butt;stroke-linejoin:miter;stroke-miterlimit:4;stroke-dasharray:none;stroke-dashoffset:0;stroke-opacity:1;marker:none;stop-color:#000;stop-opacity:1" transform="matrix(.25 0 0 .25 -2187.5 1619.37)"/><path d="M9760-6297.48h10v335h-10z" style="font-variation-settings:normal;opacity:1;fill:#9a9996;fill-opacity:1;stroke:none;stroke-width:5.02468;stroke-linecap:butt;stroke-linejoin:miter;stroke-miterlimit:4;stroke-dasharray:none;stroke-dashoffset:0;stroke-opacity:1;marker:none;stop-color:#000;stop-opacity:1" transform="matrix(.25 0 0 .25 -2197.5 1619.37)"/><path d="M9750-6262.48h20v25h-20zm0 245h20v25h-20z" style="font-variation-settings:normal;opacity:1;fill:#9a9996;fill-opacity:1;stroke:none;stroke-width:5.02468;stroke-linecap:butt;stroke-linejoin:miter;stroke-miterlimit:4;stroke-dasharray:none;stroke-dashoffset:0;stroke-opacity:1;marker:none;stop-color:#000;stop-opacity:1" transform="matrix(.25 0 0 .25 -2197.5 1619.37)"/><path d="M9760-6297.48h5v335h-5z" style="font-variation-settings:normal;opacity:1;fill:#f6f5f4;fill-opacity:1;stroke:none;stroke-width:3.55299;stroke-linecap:butt;stroke-linejoin:miter;stroke-miterlimit:4;stroke-dasharray:none;stroke-dashoffset:0;stroke-opacity:1;marker:none;stop-color:#000;stop-opacity:1" transform="matrix(.25 0 0 .25 -2197.5 1619.37)"/></svg>